<mxfile host="app.diagrams.net" agent="Mozilla/5.0 (Windows NT 10.0; Win64; x64; rv:135.0) Gecko/20100101 Firefox/135.0" version="24.8.6">
  <diagram name="Страница — 1" id="NEjfCD_Eh1-GW2eltZbt">
    <mxGraphModel dx="1026" dy="1018" grid="1" gridSize="10" guides="1" tooltips="1" connect="1" arrows="1" fold="1" page="1" pageScale="1" pageWidth="827" pageHeight="1169" math="0" shadow="0">
      <root>
        <mxCell id="0" />
        <mxCell id="1" parent="0" />
        <mxCell id="G9T1TqWtmPURdtRibpyq-349" value="" style="rounded=0;whiteSpace=wrap;html=1;fillColor=none;" vertex="1" parent="1">
          <mxGeometry x="521" y="1305" width="210" height="370" as="geometry" />
        </mxCell>
        <mxCell id="G9T1TqWtmPURdtRibpyq-57" style="edgeStyle=orthogonalEdgeStyle;rounded=0;orthogonalLoop=1;jettySize=auto;html=1;exitX=0.5;exitY=1;exitDx=0;exitDy=0;entryX=0.5;entryY=0;entryDx=0;entryDy=0;" edge="1" parent="1" source="G9T1TqWtmPURdtRibpyq-2" target="G9T1TqWtmPURdtRibpyq-1">
          <mxGeometry relative="1" as="geometry" />
        </mxCell>
        <mxCell id="G9T1TqWtmPURdtRibpyq-2" value="Входное изображение" style="text;html=1;align=center;verticalAlign=middle;whiteSpace=wrap;rounded=0;rotation=-90;" vertex="1" parent="1">
          <mxGeometry x="40" y="320" width="80" height="40" as="geometry" />
        </mxCell>
        <mxCell id="G9T1TqWtmPURdtRibpyq-18" value="" style="group;fillColor=#e1d5e7;strokeColor=#9673a6;" vertex="1" connectable="0" parent="1">
          <mxGeometry x="130" y="280" width="90" height="120" as="geometry" />
        </mxCell>
        <mxCell id="G9T1TqWtmPURdtRibpyq-1" value="3&lt;span lang=&quot;ru&quot; class=&quot;BxUVEf ILfuVd&quot;&gt;&lt;span class=&quot;hgKElc&quot;&gt;&lt;b&gt;×&lt;/b&gt;&lt;/span&gt;&lt;/span&gt;3 Conv + Relu 64 " style="rounded=0;whiteSpace=wrap;html=1;rotation=-90;fillColor=#ffe6cc;strokeColor=#d79b00;" vertex="1" parent="G9T1TqWtmPURdtRibpyq-18">
          <mxGeometry x="-45" y="45" width="120" height="30" as="geometry" />
        </mxCell>
        <mxCell id="G9T1TqWtmPURdtRibpyq-3" value="3&lt;span lang=&quot;ru&quot; class=&quot;BxUVEf ILfuVd&quot;&gt;&lt;span class=&quot;hgKElc&quot;&gt;&lt;b&gt;×&lt;/b&gt;&lt;/span&gt;&lt;/span&gt;3 Conv + Relu 64 " style="rounded=0;whiteSpace=wrap;html=1;rotation=-90;fillColor=#ffe6cc;strokeColor=#d79b00;" vertex="1" parent="G9T1TqWtmPURdtRibpyq-18">
          <mxGeometry x="-15" y="45" width="120" height="30" as="geometry" />
        </mxCell>
        <mxCell id="G9T1TqWtmPURdtRibpyq-4" value="2&lt;span lang=&quot;ru&quot; class=&quot;BxUVEf ILfuVd&quot;&gt;&lt;span class=&quot;hgKElc&quot;&gt;&lt;b&gt;×&lt;/b&gt;&lt;/span&gt;&lt;/span&gt;2 Max-Pool" style="rounded=0;whiteSpace=wrap;html=1;rotation=-90;fillColor=#e1d5e7;strokeColor=#9673a6;" vertex="1" parent="G9T1TqWtmPURdtRibpyq-18">
          <mxGeometry x="15" y="45" width="120" height="30" as="geometry" />
        </mxCell>
        <mxCell id="G9T1TqWtmPURdtRibpyq-20" value="" style="group;fillColor=#ffe6cc;strokeColor=#d79b00;" vertex="1" connectable="0" parent="1">
          <mxGeometry x="240" y="280" width="90" height="120" as="geometry" />
        </mxCell>
        <mxCell id="G9T1TqWtmPURdtRibpyq-21" value="3&lt;span lang=&quot;ru&quot; class=&quot;BxUVEf ILfuVd&quot;&gt;&lt;span class=&quot;hgKElc&quot;&gt;&lt;b&gt;×&lt;/b&gt;&lt;/span&gt;&lt;/span&gt;3 Conv + Relu 128 " style="rounded=0;whiteSpace=wrap;html=1;rotation=-90;fillColor=#ffe6cc;strokeColor=#d79b00;" vertex="1" parent="G9T1TqWtmPURdtRibpyq-20">
          <mxGeometry x="-45" y="45" width="120" height="30" as="geometry" />
        </mxCell>
        <mxCell id="G9T1TqWtmPURdtRibpyq-22" value="3&lt;span lang=&quot;ru&quot; class=&quot;BxUVEf ILfuVd&quot;&gt;&lt;span class=&quot;hgKElc&quot;&gt;&lt;b&gt;×&lt;/b&gt;&lt;/span&gt;&lt;/span&gt;3 Conv + Relu 128" style="rounded=0;whiteSpace=wrap;html=1;rotation=-90;fillColor=#ffe6cc;strokeColor=#d79b00;" vertex="1" parent="G9T1TqWtmPURdtRibpyq-20">
          <mxGeometry x="-15" y="45" width="120" height="30" as="geometry" />
        </mxCell>
        <mxCell id="G9T1TqWtmPURdtRibpyq-23" value="2&lt;span lang=&quot;ru&quot; class=&quot;BxUVEf ILfuVd&quot;&gt;&lt;span class=&quot;hgKElc&quot;&gt;&lt;b&gt;×&lt;/b&gt;&lt;/span&gt;&lt;/span&gt;2 Max-Pool" style="rounded=0;whiteSpace=wrap;html=1;rotation=-90;fillColor=#e1d5e7;strokeColor=#9673a6;" vertex="1" parent="G9T1TqWtmPURdtRibpyq-20">
          <mxGeometry x="15" y="45" width="120" height="30" as="geometry" />
        </mxCell>
        <mxCell id="G9T1TqWtmPURdtRibpyq-30" value="" style="group;fillColor=#ffe6cc;strokeColor=#d79b00;" vertex="1" connectable="0" parent="1">
          <mxGeometry x="350" y="280" width="121" height="120" as="geometry" />
        </mxCell>
        <mxCell id="G9T1TqWtmPURdtRibpyq-24" value="" style="group;fillColor=#e1d5e7;strokeColor=#9673a6;" vertex="1" connectable="0" parent="G9T1TqWtmPURdtRibpyq-30">
          <mxGeometry x="31" width="90" height="120" as="geometry" />
        </mxCell>
        <mxCell id="G9T1TqWtmPURdtRibpyq-25" value="3&lt;span lang=&quot;ru&quot; class=&quot;BxUVEf ILfuVd&quot;&gt;&lt;span class=&quot;hgKElc&quot;&gt;&lt;b&gt;×&lt;/b&gt;&lt;/span&gt;&lt;/span&gt;3 Conv + Relu 256" style="rounded=0;whiteSpace=wrap;html=1;rotation=-90;fillColor=#ffe6cc;strokeColor=#d79b00;" vertex="1" parent="G9T1TqWtmPURdtRibpyq-24">
          <mxGeometry x="-45" y="45" width="120" height="30" as="geometry" />
        </mxCell>
        <mxCell id="G9T1TqWtmPURdtRibpyq-26" value="3&lt;span lang=&quot;ru&quot; class=&quot;BxUVEf ILfuVd&quot;&gt;&lt;span class=&quot;hgKElc&quot;&gt;&lt;b&gt;×&lt;/b&gt;&lt;/span&gt;&lt;/span&gt;3 Conv + Relu 256" style="rounded=0;whiteSpace=wrap;html=1;rotation=-90;fillColor=#ffe6cc;strokeColor=#d79b00;" vertex="1" parent="G9T1TqWtmPURdtRibpyq-24">
          <mxGeometry x="-15" y="45" width="120" height="30" as="geometry" />
        </mxCell>
        <mxCell id="G9T1TqWtmPURdtRibpyq-27" value="2&lt;span lang=&quot;ru&quot; class=&quot;BxUVEf ILfuVd&quot;&gt;&lt;span class=&quot;hgKElc&quot;&gt;&lt;b&gt;×&lt;/b&gt;&lt;/span&gt;&lt;/span&gt;2 Max-Pool" style="rounded=0;whiteSpace=wrap;html=1;rotation=-90;fillColor=#e1d5e7;strokeColor=#9673a6;" vertex="1" parent="G9T1TqWtmPURdtRibpyq-24">
          <mxGeometry x="15" y="45" width="120" height="30" as="geometry" />
        </mxCell>
        <mxCell id="G9T1TqWtmPURdtRibpyq-28" value="3&lt;span lang=&quot;ru&quot; class=&quot;BxUVEf ILfuVd&quot;&gt;&lt;span class=&quot;hgKElc&quot;&gt;&lt;b&gt;×&lt;/b&gt;&lt;/span&gt;&lt;/span&gt;3 Conv + Relu 256" style="rounded=0;whiteSpace=wrap;html=1;rotation=-90;fillColor=#ffe6cc;strokeColor=#d79b00;" vertex="1" parent="G9T1TqWtmPURdtRibpyq-30">
          <mxGeometry x="-45" y="45" width="120" height="30" as="geometry" />
        </mxCell>
        <mxCell id="G9T1TqWtmPURdtRibpyq-31" value="" style="group" vertex="1" connectable="0" parent="1">
          <mxGeometry x="490" y="280" width="121" height="120" as="geometry" />
        </mxCell>
        <mxCell id="G9T1TqWtmPURdtRibpyq-32" value="" style="group;fillColor=#ffe6cc;strokeColor=#d79b00;" vertex="1" connectable="0" parent="G9T1TqWtmPURdtRibpyq-31">
          <mxGeometry x="31" width="90" height="120" as="geometry" />
        </mxCell>
        <mxCell id="G9T1TqWtmPURdtRibpyq-33" value="3&lt;span lang=&quot;ru&quot; class=&quot;BxUVEf ILfuVd&quot;&gt;&lt;span class=&quot;hgKElc&quot;&gt;&lt;b&gt;×&lt;/b&gt;&lt;/span&gt;&lt;/span&gt;3 Conv + Relu 512" style="rounded=0;whiteSpace=wrap;html=1;rotation=-90;fillColor=#ffe6cc;strokeColor=#d79b00;" vertex="1" parent="G9T1TqWtmPURdtRibpyq-32">
          <mxGeometry x="-45" y="45" width="120" height="30" as="geometry" />
        </mxCell>
        <mxCell id="G9T1TqWtmPURdtRibpyq-34" value="3&lt;span lang=&quot;ru&quot; class=&quot;BxUVEf ILfuVd&quot;&gt;&lt;span class=&quot;hgKElc&quot;&gt;&lt;b&gt;×&lt;/b&gt;&lt;/span&gt;&lt;/span&gt;3 Conv + Relu 512" style="rounded=0;whiteSpace=wrap;html=1;rotation=-90;fillColor=#ffe6cc;strokeColor=#d79b00;" vertex="1" parent="G9T1TqWtmPURdtRibpyq-32">
          <mxGeometry x="-15" y="45" width="120" height="30" as="geometry" />
        </mxCell>
        <mxCell id="G9T1TqWtmPURdtRibpyq-35" value="2&lt;span lang=&quot;ru&quot; class=&quot;BxUVEf ILfuVd&quot;&gt;&lt;span class=&quot;hgKElc&quot;&gt;&lt;b&gt;×&lt;/b&gt;&lt;/span&gt;&lt;/span&gt;2 Max-Pool" style="rounded=0;whiteSpace=wrap;html=1;rotation=-90;fillColor=#e1d5e7;strokeColor=#9673a6;" vertex="1" parent="G9T1TqWtmPURdtRibpyq-32">
          <mxGeometry x="15" y="45" width="120" height="30" as="geometry" />
        </mxCell>
        <mxCell id="G9T1TqWtmPURdtRibpyq-36" value="3&lt;span lang=&quot;ru&quot; class=&quot;BxUVEf ILfuVd&quot;&gt;&lt;span class=&quot;hgKElc&quot;&gt;&lt;b&gt;×&lt;/b&gt;&lt;/span&gt;&lt;/span&gt;3 Conv + Relu 512" style="rounded=0;whiteSpace=wrap;html=1;rotation=-90;fillColor=#ffe6cc;strokeColor=#d79b00;" vertex="1" parent="G9T1TqWtmPURdtRibpyq-31">
          <mxGeometry x="-45" y="45" width="120" height="30" as="geometry" />
        </mxCell>
        <mxCell id="G9T1TqWtmPURdtRibpyq-37" value="" style="group" vertex="1" connectable="0" parent="1">
          <mxGeometry x="630" y="280" width="121" height="120" as="geometry" />
        </mxCell>
        <mxCell id="G9T1TqWtmPURdtRibpyq-38" value="" style="group" vertex="1" connectable="0" parent="G9T1TqWtmPURdtRibpyq-37">
          <mxGeometry x="31" width="90" height="120" as="geometry" />
        </mxCell>
        <mxCell id="G9T1TqWtmPURdtRibpyq-39" value="3&lt;span lang=&quot;ru&quot; class=&quot;BxUVEf ILfuVd&quot;&gt;&lt;span class=&quot;hgKElc&quot;&gt;&lt;b&gt;×&lt;/b&gt;&lt;/span&gt;&lt;/span&gt;3 Conv + Relu 512" style="rounded=0;whiteSpace=wrap;html=1;rotation=-90;fillColor=#ffe6cc;strokeColor=#d79b00;" vertex="1" parent="G9T1TqWtmPURdtRibpyq-38">
          <mxGeometry x="-45" y="45" width="120" height="30" as="geometry" />
        </mxCell>
        <mxCell id="G9T1TqWtmPURdtRibpyq-40" value="3&lt;span lang=&quot;ru&quot; class=&quot;BxUVEf ILfuVd&quot;&gt;&lt;span class=&quot;hgKElc&quot;&gt;&lt;b&gt;×&lt;/b&gt;&lt;/span&gt;&lt;/span&gt;3 Conv + Relu 512" style="rounded=0;whiteSpace=wrap;html=1;rotation=-90;fillColor=#ffe6cc;strokeColor=#d79b00;" vertex="1" parent="G9T1TqWtmPURdtRibpyq-38">
          <mxGeometry x="-15" y="45" width="120" height="30" as="geometry" />
        </mxCell>
        <mxCell id="G9T1TqWtmPURdtRibpyq-41" value="2x2 Max-Pool" style="rounded=0;whiteSpace=wrap;html=1;rotation=-90;fillColor=#e1d5e7;strokeColor=#9673a6;" vertex="1" parent="G9T1TqWtmPURdtRibpyq-38">
          <mxGeometry x="15" y="45" width="120" height="30" as="geometry" />
        </mxCell>
        <mxCell id="G9T1TqWtmPURdtRibpyq-42" value="3&lt;span lang=&quot;ru&quot; class=&quot;BxUVEf ILfuVd&quot;&gt;&lt;span class=&quot;hgKElc&quot;&gt;&lt;b&gt;×&lt;/b&gt;&lt;/span&gt;&lt;/span&gt;3 Conv + Relu 512" style="rounded=0;whiteSpace=wrap;html=1;rotation=-90;fillColor=#ffe6cc;strokeColor=#d79b00;" vertex="1" parent="G9T1TqWtmPURdtRibpyq-37">
          <mxGeometry x="-45" y="45" width="120" height="30" as="geometry" />
        </mxCell>
        <mxCell id="G9T1TqWtmPURdtRibpyq-60" style="edgeStyle=orthogonalEdgeStyle;rounded=0;orthogonalLoop=1;jettySize=auto;html=1;exitX=0.5;exitY=1;exitDx=0;exitDy=0;entryX=0.5;entryY=0;entryDx=0;entryDy=0;" edge="1" parent="1" source="G9T1TqWtmPURdtRibpyq-48" target="G9T1TqWtmPURdtRibpyq-59">
          <mxGeometry relative="1" as="geometry" />
        </mxCell>
        <mxCell id="G9T1TqWtmPURdtRibpyq-48" value="FC 4096" style="rounded=0;whiteSpace=wrap;html=1;rotation=-90;fillColor=#d5e8d4;strokeColor=#82b366;" vertex="1" parent="1">
          <mxGeometry x="730" y="325" width="120" height="30" as="geometry" />
        </mxCell>
        <mxCell id="G9T1TqWtmPURdtRibpyq-52" style="edgeStyle=orthogonalEdgeStyle;rounded=0;orthogonalLoop=1;jettySize=auto;html=1;exitX=0.5;exitY=1;exitDx=0;exitDy=0;entryX=0.5;entryY=0;entryDx=0;entryDy=0;" edge="1" parent="1" source="G9T1TqWtmPURdtRibpyq-4" target="G9T1TqWtmPURdtRibpyq-21">
          <mxGeometry relative="1" as="geometry" />
        </mxCell>
        <mxCell id="G9T1TqWtmPURdtRibpyq-53" style="edgeStyle=orthogonalEdgeStyle;rounded=0;orthogonalLoop=1;jettySize=auto;html=1;exitX=0.5;exitY=1;exitDx=0;exitDy=0;entryX=0.5;entryY=0;entryDx=0;entryDy=0;" edge="1" parent="1" source="G9T1TqWtmPURdtRibpyq-23" target="G9T1TqWtmPURdtRibpyq-28">
          <mxGeometry relative="1" as="geometry" />
        </mxCell>
        <mxCell id="G9T1TqWtmPURdtRibpyq-54" style="edgeStyle=orthogonalEdgeStyle;rounded=0;orthogonalLoop=1;jettySize=auto;html=1;exitX=0.5;exitY=1;exitDx=0;exitDy=0;entryX=0.5;entryY=0;entryDx=0;entryDy=0;" edge="1" parent="1" source="G9T1TqWtmPURdtRibpyq-27" target="G9T1TqWtmPURdtRibpyq-36">
          <mxGeometry relative="1" as="geometry" />
        </mxCell>
        <mxCell id="G9T1TqWtmPURdtRibpyq-55" style="edgeStyle=orthogonalEdgeStyle;rounded=0;orthogonalLoop=1;jettySize=auto;html=1;exitX=0.5;exitY=1;exitDx=0;exitDy=0;entryX=0.5;entryY=0;entryDx=0;entryDy=0;" edge="1" parent="1" source="G9T1TqWtmPURdtRibpyq-35" target="G9T1TqWtmPURdtRibpyq-42">
          <mxGeometry relative="1" as="geometry" />
        </mxCell>
        <mxCell id="G9T1TqWtmPURdtRibpyq-56" style="edgeStyle=orthogonalEdgeStyle;rounded=0;orthogonalLoop=1;jettySize=auto;html=1;exitX=0.5;exitY=1;exitDx=0;exitDy=0;entryX=0.5;entryY=0;entryDx=0;entryDy=0;" edge="1" parent="1" source="G9T1TqWtmPURdtRibpyq-41" target="G9T1TqWtmPURdtRibpyq-48">
          <mxGeometry relative="1" as="geometry" />
        </mxCell>
        <mxCell id="G9T1TqWtmPURdtRibpyq-63" style="edgeStyle=orthogonalEdgeStyle;rounded=0;orthogonalLoop=1;jettySize=auto;html=1;exitX=0.5;exitY=1;exitDx=0;exitDy=0;entryX=0.5;entryY=0;entryDx=0;entryDy=0;" edge="1" parent="1" source="G9T1TqWtmPURdtRibpyq-59" target="G9T1TqWtmPURdtRibpyq-62">
          <mxGeometry relative="1" as="geometry" />
        </mxCell>
        <mxCell id="G9T1TqWtmPURdtRibpyq-59" value="FC 4096" style="rounded=0;whiteSpace=wrap;html=1;rotation=-90;fillColor=#d5e8d4;strokeColor=#82b366;" vertex="1" parent="1">
          <mxGeometry x="780" y="325" width="120" height="30" as="geometry" />
        </mxCell>
        <mxCell id="G9T1TqWtmPURdtRibpyq-65" style="edgeStyle=orthogonalEdgeStyle;rounded=0;orthogonalLoop=1;jettySize=auto;html=1;exitX=0.5;exitY=1;exitDx=0;exitDy=0;" edge="1" parent="1" source="G9T1TqWtmPURdtRibpyq-62" target="G9T1TqWtmPURdtRibpyq-64">
          <mxGeometry relative="1" as="geometry" />
        </mxCell>
        <mxCell id="G9T1TqWtmPURdtRibpyq-62" value="&amp;nbsp;FC 1000" style="rounded=0;whiteSpace=wrap;html=1;rotation=-90;fillColor=#d5e8d4;strokeColor=#82b366;" vertex="1" parent="1">
          <mxGeometry x="830" y="325" width="120" height="30" as="geometry" />
        </mxCell>
        <mxCell id="G9T1TqWtmPURdtRibpyq-64" value="Результат классификации" style="text;html=1;align=center;verticalAlign=middle;whiteSpace=wrap;rounded=0;rotation=-90;" vertex="1" parent="1">
          <mxGeometry x="910" y="320" width="80" height="40" as="geometry" />
        </mxCell>
        <mxCell id="G9T1TqWtmPURdtRibpyq-66" value="&lt;font style=&quot;font-size: 34px;&quot;&gt;VGG-16&lt;/font&gt;" style="text;html=1;align=center;verticalAlign=middle;whiteSpace=wrap;rounded=0;" vertex="1" parent="1">
          <mxGeometry x="440" y="170" width="130" height="90" as="geometry" />
        </mxCell>
        <mxCell id="G9T1TqWtmPURdtRibpyq-92" style="edgeStyle=orthogonalEdgeStyle;rounded=0;orthogonalLoop=1;jettySize=auto;html=1;exitX=0.5;exitY=1;exitDx=0;exitDy=0;entryX=0.5;entryY=0;entryDx=0;entryDy=0;" edge="1" parent="1" source="G9T1TqWtmPURdtRibpyq-93">
          <mxGeometry relative="1" as="geometry">
            <mxPoint x="150" y="650" as="targetPoint" />
          </mxGeometry>
        </mxCell>
        <mxCell id="G9T1TqWtmPURdtRibpyq-93" value="Входное изображение" style="text;html=1;align=center;verticalAlign=middle;whiteSpace=wrap;rounded=0;rotation=-90;" vertex="1" parent="1">
          <mxGeometry x="60" y="630" width="80" height="40" as="geometry" />
        </mxCell>
        <mxCell id="G9T1TqWtmPURdtRibpyq-118" value="&lt;font style=&quot;font-size: 34px;&quot;&gt;ResNet-34&lt;/font&gt;" style="text;html=1;align=center;verticalAlign=middle;whiteSpace=wrap;rounded=0;" vertex="1" parent="1">
          <mxGeometry x="500" y="440" width="130" height="90" as="geometry" />
        </mxCell>
        <mxCell id="G9T1TqWtmPURdtRibpyq-126" style="edgeStyle=orthogonalEdgeStyle;rounded=0;orthogonalLoop=1;jettySize=auto;html=1;exitX=0.5;exitY=1;exitDx=0;exitDy=0;entryX=0.5;entryY=0;entryDx=0;entryDy=0;" edge="1" parent="1" source="G9T1TqWtmPURdtRibpyq-123" target="G9T1TqWtmPURdtRibpyq-125">
          <mxGeometry relative="1" as="geometry" />
        </mxCell>
        <mxCell id="G9T1TqWtmPURdtRibpyq-123" value="7&lt;span lang=&quot;ru&quot; class=&quot;BxUVEf ILfuVd&quot;&gt;&lt;span class=&quot;hgKElc&quot;&gt;&lt;b&gt;×&lt;/b&gt;&lt;/span&gt;&lt;/span&gt;7 Conv, 64, /2" style="rounded=0;whiteSpace=wrap;html=1;rotation=-90;" vertex="1" parent="1">
          <mxGeometry x="110" y="635" width="120" height="30" as="geometry" />
        </mxCell>
        <mxCell id="G9T1TqWtmPURdtRibpyq-140" style="edgeStyle=orthogonalEdgeStyle;rounded=0;orthogonalLoop=1;jettySize=auto;html=1;exitX=0.5;exitY=1;exitDx=0;exitDy=0;entryX=0.5;entryY=0;entryDx=0;entryDy=0;" edge="1" parent="1" source="G9T1TqWtmPURdtRibpyq-125" target="G9T1TqWtmPURdtRibpyq-134">
          <mxGeometry relative="1" as="geometry" />
        </mxCell>
        <mxCell id="G9T1TqWtmPURdtRibpyq-125" value="Max-Pool, /2" style="rounded=0;whiteSpace=wrap;html=1;rotation=-90;fillColor=#e1d5e7;strokeColor=#9673a6;" vertex="1" parent="1">
          <mxGeometry x="163" y="635" width="120" height="30" as="geometry" />
        </mxCell>
        <mxCell id="G9T1TqWtmPURdtRibpyq-142" style="edgeStyle=orthogonalEdgeStyle;rounded=0;orthogonalLoop=1;jettySize=auto;html=1;exitX=0.5;exitY=1;exitDx=0;exitDy=0;entryX=0.5;entryY=0;entryDx=0;entryDy=0;" edge="1" parent="1" source="G9T1TqWtmPURdtRibpyq-134" target="G9T1TqWtmPURdtRibpyq-135">
          <mxGeometry relative="1" as="geometry" />
        </mxCell>
        <mxCell id="G9T1TqWtmPURdtRibpyq-134" value="3&lt;span lang=&quot;ru&quot; class=&quot;BxUVEf ILfuVd&quot;&gt;&lt;span class=&quot;hgKElc&quot;&gt;&lt;b&gt;×&lt;/b&gt;&lt;/span&gt;&lt;/span&gt;3 Conv, 64 " style="rounded=0;whiteSpace=wrap;html=1;rotation=-90;fillColor=#ffe6cc;strokeColor=#d79b00;" vertex="1" parent="1">
          <mxGeometry x="217" y="635" width="120" height="30" as="geometry" />
        </mxCell>
        <mxCell id="G9T1TqWtmPURdtRibpyq-143" style="edgeStyle=orthogonalEdgeStyle;rounded=0;orthogonalLoop=1;jettySize=auto;html=1;exitX=0.5;exitY=1;exitDx=0;exitDy=0;entryX=0.5;entryY=0;entryDx=0;entryDy=0;" edge="1" parent="1" source="G9T1TqWtmPURdtRibpyq-135" target="G9T1TqWtmPURdtRibpyq-136">
          <mxGeometry relative="1" as="geometry" />
        </mxCell>
        <mxCell id="G9T1TqWtmPURdtRibpyq-135" value="3&lt;span lang=&quot;ru&quot; class=&quot;BxUVEf ILfuVd&quot;&gt;&lt;span class=&quot;hgKElc&quot;&gt;&lt;b&gt;×&lt;/b&gt;&lt;/span&gt;&lt;/span&gt;3 Conv, 64 " style="rounded=0;whiteSpace=wrap;html=1;rotation=-90;fillColor=#ffe6cc;strokeColor=#d79b00;" vertex="1" parent="1">
          <mxGeometry x="270" y="635" width="120" height="30" as="geometry" />
        </mxCell>
        <mxCell id="G9T1TqWtmPURdtRibpyq-144" style="edgeStyle=orthogonalEdgeStyle;rounded=0;orthogonalLoop=1;jettySize=auto;html=1;exitX=0.5;exitY=1;exitDx=0;exitDy=0;entryX=0.5;entryY=0;entryDx=0;entryDy=0;" edge="1" parent="1" source="G9T1TqWtmPURdtRibpyq-136" target="G9T1TqWtmPURdtRibpyq-137">
          <mxGeometry relative="1" as="geometry" />
        </mxCell>
        <mxCell id="G9T1TqWtmPURdtRibpyq-136" value="3&lt;span lang=&quot;ru&quot; class=&quot;BxUVEf ILfuVd&quot;&gt;&lt;span class=&quot;hgKElc&quot;&gt;&lt;b&gt;×&lt;/b&gt;&lt;/span&gt;&lt;/span&gt;3 Conv, 64 " style="rounded=0;whiteSpace=wrap;html=1;rotation=-90;fillColor=#ffe6cc;strokeColor=#d79b00;" vertex="1" parent="1">
          <mxGeometry x="323" y="635" width="120" height="30" as="geometry" />
        </mxCell>
        <mxCell id="G9T1TqWtmPURdtRibpyq-145" style="edgeStyle=orthogonalEdgeStyle;rounded=0;orthogonalLoop=1;jettySize=auto;html=1;exitX=0.5;exitY=1;exitDx=0;exitDy=0;entryX=0.5;entryY=0;entryDx=0;entryDy=0;" edge="1" parent="1" source="G9T1TqWtmPURdtRibpyq-137" target="G9T1TqWtmPURdtRibpyq-138">
          <mxGeometry relative="1" as="geometry" />
        </mxCell>
        <mxCell id="G9T1TqWtmPURdtRibpyq-137" value="3&lt;span lang=&quot;ru&quot; class=&quot;BxUVEf ILfuVd&quot;&gt;&lt;span class=&quot;hgKElc&quot;&gt;&lt;b&gt;×&lt;/b&gt;&lt;/span&gt;&lt;/span&gt;3 Conv, 64 " style="rounded=0;whiteSpace=wrap;html=1;rotation=-90;fillColor=#ffe6cc;strokeColor=#d79b00;" vertex="1" parent="1">
          <mxGeometry x="377" y="635" width="120" height="30" as="geometry" />
        </mxCell>
        <mxCell id="G9T1TqWtmPURdtRibpyq-146" style="edgeStyle=orthogonalEdgeStyle;rounded=0;orthogonalLoop=1;jettySize=auto;html=1;exitX=0.5;exitY=1;exitDx=0;exitDy=0;entryX=0.5;entryY=0;entryDx=0;entryDy=0;" edge="1" parent="1" source="G9T1TqWtmPURdtRibpyq-138" target="G9T1TqWtmPURdtRibpyq-139">
          <mxGeometry relative="1" as="geometry" />
        </mxCell>
        <mxCell id="G9T1TqWtmPURdtRibpyq-138" value="3&lt;span lang=&quot;ru&quot; class=&quot;BxUVEf ILfuVd&quot;&gt;&lt;span class=&quot;hgKElc&quot;&gt;&lt;b&gt;×&lt;/b&gt;&lt;/span&gt;&lt;/span&gt;3 Conv, 64 " style="rounded=0;whiteSpace=wrap;html=1;rotation=-90;fillColor=#ffe6cc;strokeColor=#d79b00;" vertex="1" parent="1">
          <mxGeometry x="430" y="635" width="120" height="30" as="geometry" />
        </mxCell>
        <mxCell id="G9T1TqWtmPURdtRibpyq-182" style="edgeStyle=orthogonalEdgeStyle;rounded=0;orthogonalLoop=1;jettySize=auto;html=1;exitX=0.5;exitY=1;exitDx=0;exitDy=0;entryX=0.5;entryY=0;entryDx=0;entryDy=0;" edge="1" parent="1" source="G9T1TqWtmPURdtRibpyq-139" target="G9T1TqWtmPURdtRibpyq-171">
          <mxGeometry relative="1" as="geometry" />
        </mxCell>
        <mxCell id="G9T1TqWtmPURdtRibpyq-139" value="3&lt;span lang=&quot;ru&quot; class=&quot;BxUVEf ILfuVd&quot;&gt;&lt;span class=&quot;hgKElc&quot;&gt;&lt;b&gt;×&lt;/b&gt;&lt;/span&gt;&lt;/span&gt;3 Conv, 64 " style="rounded=0;whiteSpace=wrap;html=1;rotation=-90;fillColor=#ffe6cc;strokeColor=#d79b00;" vertex="1" parent="1">
          <mxGeometry x="483" y="635" width="120" height="30" as="geometry" />
        </mxCell>
        <mxCell id="G9T1TqWtmPURdtRibpyq-167" value="" style="group" vertex="1" connectable="0" parent="1">
          <mxGeometry x="247" y="555" width="103" height="95" as="geometry" />
        </mxCell>
        <mxCell id="G9T1TqWtmPURdtRibpyq-151" value="" style="endArrow=none;html=1;rounded=0;endFill=0;" edge="1" parent="G9T1TqWtmPURdtRibpyq-167">
          <mxGeometry relative="1" as="geometry">
            <mxPoint y="95" as="sourcePoint" />
            <mxPoint x="103" y="95" as="targetPoint" />
            <Array as="points">
              <mxPoint y="5" />
              <mxPoint x="46.81818181818182" y="5" />
              <mxPoint x="103" y="5" />
              <mxPoint x="103" y="35" />
            </Array>
          </mxGeometry>
        </mxCell>
        <mxCell id="G9T1TqWtmPURdtRibpyq-154" value="" style="triangle;whiteSpace=wrap;html=1;fillColor=#000000;" vertex="1" parent="G9T1TqWtmPURdtRibpyq-167">
          <mxGeometry x="48.690909090909095" width="9.363636363636363" height="10" as="geometry" />
        </mxCell>
        <mxCell id="G9T1TqWtmPURdtRibpyq-168" value="" style="group" vertex="1" connectable="0" parent="1">
          <mxGeometry x="355" y="555" width="103" height="95" as="geometry" />
        </mxCell>
        <mxCell id="G9T1TqWtmPURdtRibpyq-169" value="" style="endArrow=none;html=1;rounded=0;endFill=0;" edge="1" parent="G9T1TqWtmPURdtRibpyq-168">
          <mxGeometry relative="1" as="geometry">
            <mxPoint y="95" as="sourcePoint" />
            <mxPoint x="103" y="95" as="targetPoint" />
            <Array as="points">
              <mxPoint y="5" />
              <mxPoint x="46.81818181818183" y="5" />
              <mxPoint x="103" y="5" />
              <mxPoint x="103" y="35" />
            </Array>
          </mxGeometry>
        </mxCell>
        <mxCell id="G9T1TqWtmPURdtRibpyq-170" value="" style="triangle;whiteSpace=wrap;html=1;fillColor=#000000;" vertex="1" parent="G9T1TqWtmPURdtRibpyq-168">
          <mxGeometry x="48.690909090909095" width="9.36363636363636" height="10" as="geometry" />
        </mxCell>
        <mxCell id="G9T1TqWtmPURdtRibpyq-183" style="edgeStyle=orthogonalEdgeStyle;rounded=0;orthogonalLoop=1;jettySize=auto;html=1;exitX=0.5;exitY=1;exitDx=0;exitDy=0;entryX=0.5;entryY=0;entryDx=0;entryDy=0;" edge="1" parent="1" source="G9T1TqWtmPURdtRibpyq-171" target="G9T1TqWtmPURdtRibpyq-172">
          <mxGeometry relative="1" as="geometry" />
        </mxCell>
        <mxCell id="G9T1TqWtmPURdtRibpyq-171" value="3&lt;span lang=&quot;ru&quot; class=&quot;BxUVEf ILfuVd&quot;&gt;&lt;span class=&quot;hgKElc&quot;&gt;&lt;b&gt;×&lt;/b&gt;&lt;/span&gt;&lt;/span&gt;3 Conv, 128, /2 " style="rounded=0;whiteSpace=wrap;html=1;rotation=-90;fillColor=#b1ddf0;strokeColor=#10739e;" vertex="1" parent="1">
          <mxGeometry x="537" y="635" width="120" height="30" as="geometry" />
        </mxCell>
        <mxCell id="G9T1TqWtmPURdtRibpyq-184" style="edgeStyle=orthogonalEdgeStyle;rounded=0;orthogonalLoop=1;jettySize=auto;html=1;exitX=0.5;exitY=1;exitDx=0;exitDy=0;entryX=0.5;entryY=0;entryDx=0;entryDy=0;" edge="1" parent="1" source="G9T1TqWtmPURdtRibpyq-172" target="G9T1TqWtmPURdtRibpyq-173">
          <mxGeometry relative="1" as="geometry" />
        </mxCell>
        <mxCell id="G9T1TqWtmPURdtRibpyq-172" value="3&lt;span lang=&quot;ru&quot; class=&quot;BxUVEf ILfuVd&quot;&gt;&lt;span class=&quot;hgKElc&quot;&gt;&lt;b&gt;×&lt;/b&gt;&lt;/span&gt;&lt;/span&gt;3 Conv, 128" style="rounded=0;whiteSpace=wrap;html=1;rotation=-90;fillColor=#b1ddf0;strokeColor=#10739e;" vertex="1" parent="1">
          <mxGeometry x="590" y="635" width="120" height="30" as="geometry" />
        </mxCell>
        <mxCell id="G9T1TqWtmPURdtRibpyq-185" style="edgeStyle=orthogonalEdgeStyle;rounded=0;orthogonalLoop=1;jettySize=auto;html=1;exitX=0.5;exitY=1;exitDx=0;exitDy=0;" edge="1" parent="1" source="G9T1TqWtmPURdtRibpyq-173" target="G9T1TqWtmPURdtRibpyq-174">
          <mxGeometry relative="1" as="geometry" />
        </mxCell>
        <mxCell id="G9T1TqWtmPURdtRibpyq-173" value="3&lt;span lang=&quot;ru&quot; class=&quot;BxUVEf ILfuVd&quot;&gt;&lt;span class=&quot;hgKElc&quot;&gt;&lt;b&gt;×&lt;/b&gt;&lt;/span&gt;&lt;/span&gt;3 Conv, 128" style="rounded=0;whiteSpace=wrap;html=1;rotation=-90;fillColor=#b1ddf0;strokeColor=#10739e;" vertex="1" parent="1">
          <mxGeometry x="643" y="635" width="120" height="30" as="geometry" />
        </mxCell>
        <mxCell id="G9T1TqWtmPURdtRibpyq-186" style="edgeStyle=orthogonalEdgeStyle;rounded=0;orthogonalLoop=1;jettySize=auto;html=1;exitX=0.5;exitY=1;exitDx=0;exitDy=0;entryX=0.5;entryY=0;entryDx=0;entryDy=0;" edge="1" parent="1" source="G9T1TqWtmPURdtRibpyq-174" target="G9T1TqWtmPURdtRibpyq-175">
          <mxGeometry relative="1" as="geometry" />
        </mxCell>
        <mxCell id="G9T1TqWtmPURdtRibpyq-174" value="3&lt;span lang=&quot;ru&quot; class=&quot;BxUVEf ILfuVd&quot;&gt;&lt;span class=&quot;hgKElc&quot;&gt;&lt;b&gt;×&lt;/b&gt;&lt;/span&gt;&lt;/span&gt;3 Conv, 128" style="rounded=0;whiteSpace=wrap;html=1;rotation=-90;fillColor=#b1ddf0;strokeColor=#10739e;" vertex="1" parent="1">
          <mxGeometry x="697" y="635" width="120" height="30" as="geometry" />
        </mxCell>
        <mxCell id="G9T1TqWtmPURdtRibpyq-188" style="edgeStyle=orthogonalEdgeStyle;rounded=0;orthogonalLoop=1;jettySize=auto;html=1;exitX=0.5;exitY=1;exitDx=0;exitDy=0;entryX=0.5;entryY=0;entryDx=0;entryDy=0;" edge="1" parent="1" source="G9T1TqWtmPURdtRibpyq-175" target="G9T1TqWtmPURdtRibpyq-176">
          <mxGeometry relative="1" as="geometry" />
        </mxCell>
        <mxCell id="G9T1TqWtmPURdtRibpyq-175" value="3&lt;span lang=&quot;ru&quot; class=&quot;BxUVEf ILfuVd&quot;&gt;&lt;span class=&quot;hgKElc&quot;&gt;&lt;b&gt;×&lt;/b&gt;&lt;/span&gt;&lt;/span&gt;3 Conv, 128" style="rounded=0;whiteSpace=wrap;html=1;rotation=-90;fillColor=#b1ddf0;strokeColor=#10739e;" vertex="1" parent="1">
          <mxGeometry x="750" y="635" width="120" height="30" as="geometry" />
        </mxCell>
        <mxCell id="G9T1TqWtmPURdtRibpyq-189" style="edgeStyle=orthogonalEdgeStyle;rounded=0;orthogonalLoop=1;jettySize=auto;html=1;exitX=0.5;exitY=1;exitDx=0;exitDy=0;" edge="1" parent="1" source="G9T1TqWtmPURdtRibpyq-176" target="G9T1TqWtmPURdtRibpyq-177">
          <mxGeometry relative="1" as="geometry" />
        </mxCell>
        <mxCell id="G9T1TqWtmPURdtRibpyq-176" value="3&lt;span lang=&quot;ru&quot; class=&quot;BxUVEf ILfuVd&quot;&gt;&lt;span class=&quot;hgKElc&quot;&gt;&lt;b&gt;×&lt;/b&gt;&lt;/span&gt;&lt;/span&gt;3 Conv, 128" style="rounded=0;whiteSpace=wrap;html=1;rotation=-90;fillColor=#b1ddf0;strokeColor=#10739e;" vertex="1" parent="1">
          <mxGeometry x="803" y="635" width="120" height="30" as="geometry" />
        </mxCell>
        <mxCell id="G9T1TqWtmPURdtRibpyq-190" style="edgeStyle=orthogonalEdgeStyle;rounded=0;orthogonalLoop=1;jettySize=auto;html=1;exitX=0.5;exitY=1;exitDx=0;exitDy=0;entryX=0.5;entryY=0;entryDx=0;entryDy=0;" edge="1" parent="1" source="G9T1TqWtmPURdtRibpyq-177" target="G9T1TqWtmPURdtRibpyq-180">
          <mxGeometry relative="1" as="geometry" />
        </mxCell>
        <mxCell id="G9T1TqWtmPURdtRibpyq-177" value="3&lt;span lang=&quot;ru&quot; class=&quot;BxUVEf ILfuVd&quot;&gt;&lt;span class=&quot;hgKElc&quot;&gt;&lt;b&gt;×&lt;/b&gt;&lt;/span&gt;&lt;/span&gt;3 Conv, 128" style="rounded=0;whiteSpace=wrap;html=1;rotation=-90;fillColor=#b1ddf0;strokeColor=#10739e;" vertex="1" parent="1">
          <mxGeometry x="857" y="635" width="120" height="30" as="geometry" />
        </mxCell>
        <mxCell id="G9T1TqWtmPURdtRibpyq-223" style="edgeStyle=orthogonalEdgeStyle;rounded=0;orthogonalLoop=1;jettySize=auto;html=1;exitX=0.5;exitY=1;exitDx=0;exitDy=0;entryX=0.5;entryY=0;entryDx=0;entryDy=0;" edge="1" parent="1" source="G9T1TqWtmPURdtRibpyq-180" target="G9T1TqWtmPURdtRibpyq-216">
          <mxGeometry relative="1" as="geometry">
            <Array as="points">
              <mxPoint x="1005" y="650" />
              <mxPoint x="1005" y="740" />
              <mxPoint x="120" y="740" />
              <mxPoint x="120" y="865" />
            </Array>
          </mxGeometry>
        </mxCell>
        <mxCell id="G9T1TqWtmPURdtRibpyq-180" value="3&lt;span lang=&quot;ru&quot; class=&quot;BxUVEf ILfuVd&quot;&gt;&lt;span class=&quot;hgKElc&quot;&gt;&lt;b&gt;×&lt;/b&gt;&lt;/span&gt;&lt;/span&gt;3 Conv, 128" style="rounded=0;whiteSpace=wrap;html=1;rotation=-90;fillColor=#b1ddf0;strokeColor=#10739e;" vertex="1" parent="1">
          <mxGeometry x="910" y="635" width="120" height="30" as="geometry" />
        </mxCell>
        <mxCell id="G9T1TqWtmPURdtRibpyq-191" value="" style="group" vertex="1" connectable="0" parent="1">
          <mxGeometry x="463" y="555" width="103" height="95" as="geometry" />
        </mxCell>
        <mxCell id="G9T1TqWtmPURdtRibpyq-192" value="" style="endArrow=none;html=1;rounded=0;endFill=0;" edge="1" parent="G9T1TqWtmPURdtRibpyq-191">
          <mxGeometry relative="1" as="geometry">
            <mxPoint y="95" as="sourcePoint" />
            <mxPoint x="103" y="95" as="targetPoint" />
            <Array as="points">
              <mxPoint y="5.000000000000001" />
              <mxPoint x="46.81818181818183" y="5.000000000000001" />
              <mxPoint x="103" y="5.000000000000001" />
              <mxPoint x="103" y="35.000000000000014" />
            </Array>
          </mxGeometry>
        </mxCell>
        <mxCell id="G9T1TqWtmPURdtRibpyq-193" value="" style="triangle;whiteSpace=wrap;html=1;fillColor=#000000;" vertex="1" parent="G9T1TqWtmPURdtRibpyq-191">
          <mxGeometry x="48.690909090909095" width="9.363636363636363" height="10.000000000000002" as="geometry" />
        </mxCell>
        <mxCell id="G9T1TqWtmPURdtRibpyq-197" value="" style="group;dashed=1;" vertex="1" connectable="0" parent="1">
          <mxGeometry x="570" y="555" width="103" height="95" as="geometry" />
        </mxCell>
        <mxCell id="G9T1TqWtmPURdtRibpyq-198" value="" style="endArrow=none;html=1;rounded=0;endFill=0;dashed=1;" edge="1" parent="G9T1TqWtmPURdtRibpyq-197">
          <mxGeometry relative="1" as="geometry">
            <mxPoint y="95" as="sourcePoint" />
            <mxPoint x="103" y="95" as="targetPoint" />
            <Array as="points">
              <mxPoint y="5.000000000000001" />
              <mxPoint x="46.81818181818183" y="5.000000000000001" />
              <mxPoint x="103" y="5.000000000000001" />
              <mxPoint x="103" y="35.000000000000014" />
            </Array>
          </mxGeometry>
        </mxCell>
        <mxCell id="G9T1TqWtmPURdtRibpyq-199" value="" style="triangle;whiteSpace=wrap;html=1;fillColor=#000000;" vertex="1" parent="G9T1TqWtmPURdtRibpyq-197">
          <mxGeometry x="48.690909090909095" width="9.363636363636363" height="10.000000000000002" as="geometry" />
        </mxCell>
        <mxCell id="G9T1TqWtmPURdtRibpyq-205" value="" style="group" vertex="1" connectable="0" parent="1">
          <mxGeometry x="783" y="555" width="103" height="95" as="geometry" />
        </mxCell>
        <mxCell id="G9T1TqWtmPURdtRibpyq-206" value="" style="endArrow=none;html=1;rounded=0;endFill=0;" edge="1" parent="G9T1TqWtmPURdtRibpyq-205">
          <mxGeometry relative="1" as="geometry">
            <mxPoint y="95" as="sourcePoint" />
            <mxPoint x="103" y="95" as="targetPoint" />
            <Array as="points">
              <mxPoint y="5.000000000000003" />
              <mxPoint x="46.81818181818183" y="5.000000000000003" />
              <mxPoint x="103" y="5.000000000000003" />
              <mxPoint x="103" y="35.00000000000003" />
            </Array>
          </mxGeometry>
        </mxCell>
        <mxCell id="G9T1TqWtmPURdtRibpyq-207" value="" style="triangle;whiteSpace=wrap;html=1;fillColor=#000000;" vertex="1" parent="G9T1TqWtmPURdtRibpyq-205">
          <mxGeometry x="48.690909090909095" width="9.363636363636363" height="10.000000000000005" as="geometry" />
        </mxCell>
        <mxCell id="G9T1TqWtmPURdtRibpyq-213" value="" style="group" vertex="1" connectable="0" parent="1">
          <mxGeometry x="676" y="555" width="103" height="95" as="geometry" />
        </mxCell>
        <mxCell id="G9T1TqWtmPURdtRibpyq-214" value="" style="endArrow=none;html=1;rounded=0;endFill=0;" edge="1" parent="G9T1TqWtmPURdtRibpyq-213">
          <mxGeometry relative="1" as="geometry">
            <mxPoint y="95" as="sourcePoint" />
            <mxPoint x="103" y="95" as="targetPoint" />
            <Array as="points">
              <mxPoint y="5.000000000000003" />
              <mxPoint x="46.81818181818183" y="5.000000000000003" />
              <mxPoint x="103" y="5.000000000000003" />
              <mxPoint x="103" y="35.00000000000003" />
            </Array>
          </mxGeometry>
        </mxCell>
        <mxCell id="G9T1TqWtmPURdtRibpyq-215" value="" style="triangle;whiteSpace=wrap;html=1;fillColor=#000000;" vertex="1" parent="G9T1TqWtmPURdtRibpyq-213">
          <mxGeometry x="48.690909090909095" width="9.363636363636363" height="10.000000000000005" as="geometry" />
        </mxCell>
        <mxCell id="G9T1TqWtmPURdtRibpyq-241" style="edgeStyle=orthogonalEdgeStyle;rounded=0;orthogonalLoop=1;jettySize=auto;html=1;exitX=0.5;exitY=1;exitDx=0;exitDy=0;" edge="1" parent="1" source="G9T1TqWtmPURdtRibpyq-216" target="G9T1TqWtmPURdtRibpyq-227">
          <mxGeometry relative="1" as="geometry" />
        </mxCell>
        <mxCell id="G9T1TqWtmPURdtRibpyq-216" value="3&lt;span lang=&quot;ru&quot; class=&quot;BxUVEf ILfuVd&quot;&gt;&lt;span class=&quot;hgKElc&quot;&gt;&lt;b&gt;×&lt;/b&gt;&lt;/span&gt;&lt;/span&gt;3 Conv, 256, /2 " style="rounded=0;whiteSpace=wrap;html=1;rotation=-90;fillColor=#b0e3e6;strokeColor=#0e8088;" vertex="1" parent="1">
          <mxGeometry x="110" y="850" width="120" height="30" as="geometry" />
        </mxCell>
        <mxCell id="G9T1TqWtmPURdtRibpyq-224" value="" style="group" vertex="1" connectable="0" parent="1">
          <mxGeometry x="890" y="555" width="103" height="95" as="geometry" />
        </mxCell>
        <mxCell id="G9T1TqWtmPURdtRibpyq-225" value="" style="endArrow=none;html=1;rounded=0;endFill=0;" edge="1" parent="G9T1TqWtmPURdtRibpyq-224">
          <mxGeometry relative="1" as="geometry">
            <mxPoint y="95" as="sourcePoint" />
            <mxPoint x="103" y="95" as="targetPoint" />
            <Array as="points">
              <mxPoint y="5.000000000000003" />
              <mxPoint x="46.81818181818183" y="5.000000000000003" />
              <mxPoint x="103" y="5.000000000000003" />
              <mxPoint x="103" y="35.00000000000003" />
            </Array>
          </mxGeometry>
        </mxCell>
        <mxCell id="G9T1TqWtmPURdtRibpyq-226" value="" style="triangle;whiteSpace=wrap;html=1;fillColor=#000000;" vertex="1" parent="G9T1TqWtmPURdtRibpyq-224">
          <mxGeometry x="48.690909090909095" width="9.363636363636363" height="10.000000000000005" as="geometry" />
        </mxCell>
        <mxCell id="G9T1TqWtmPURdtRibpyq-242" style="edgeStyle=orthogonalEdgeStyle;rounded=0;orthogonalLoop=1;jettySize=auto;html=1;exitX=0.5;exitY=1;exitDx=0;exitDy=0;entryX=0.5;entryY=0;entryDx=0;entryDy=0;" edge="1" parent="1" source="G9T1TqWtmPURdtRibpyq-227" target="G9T1TqWtmPURdtRibpyq-228">
          <mxGeometry relative="1" as="geometry" />
        </mxCell>
        <mxCell id="G9T1TqWtmPURdtRibpyq-227" value="3&lt;span lang=&quot;ru&quot; class=&quot;BxUVEf ILfuVd&quot;&gt;&lt;span class=&quot;hgKElc&quot;&gt;&lt;b&gt;×&lt;/b&gt;&lt;/span&gt;&lt;/span&gt;3 Conv, 256" style="rounded=0;whiteSpace=wrap;html=1;rotation=-90;fillColor=#b0e3e6;strokeColor=#0e8088;" vertex="1" parent="1">
          <mxGeometry x="163" y="850" width="120" height="30" as="geometry" />
        </mxCell>
        <mxCell id="G9T1TqWtmPURdtRibpyq-243" style="edgeStyle=orthogonalEdgeStyle;rounded=0;orthogonalLoop=1;jettySize=auto;html=1;exitX=0.5;exitY=1;exitDx=0;exitDy=0;entryX=0.5;entryY=0;entryDx=0;entryDy=0;" edge="1" parent="1" source="G9T1TqWtmPURdtRibpyq-228" target="G9T1TqWtmPURdtRibpyq-229">
          <mxGeometry relative="1" as="geometry" />
        </mxCell>
        <mxCell id="G9T1TqWtmPURdtRibpyq-228" value="3&lt;span lang=&quot;ru&quot; class=&quot;BxUVEf ILfuVd&quot;&gt;&lt;span class=&quot;hgKElc&quot;&gt;&lt;b&gt;×&lt;/b&gt;&lt;/span&gt;&lt;/span&gt;3 Conv, 256" style="rounded=0;whiteSpace=wrap;html=1;rotation=-90;fillColor=#b0e3e6;strokeColor=#0e8088;" vertex="1" parent="1">
          <mxGeometry x="217" y="850" width="120" height="30" as="geometry" />
        </mxCell>
        <mxCell id="G9T1TqWtmPURdtRibpyq-244" style="edgeStyle=orthogonalEdgeStyle;rounded=0;orthogonalLoop=1;jettySize=auto;html=1;exitX=0.5;exitY=1;exitDx=0;exitDy=0;entryX=0.5;entryY=0;entryDx=0;entryDy=0;" edge="1" parent="1" source="G9T1TqWtmPURdtRibpyq-229" target="G9T1TqWtmPURdtRibpyq-230">
          <mxGeometry relative="1" as="geometry" />
        </mxCell>
        <mxCell id="G9T1TqWtmPURdtRibpyq-229" value="3&lt;span lang=&quot;ru&quot; class=&quot;BxUVEf ILfuVd&quot;&gt;&lt;span class=&quot;hgKElc&quot;&gt;&lt;b&gt;×&lt;/b&gt;&lt;/span&gt;&lt;/span&gt;3 Conv, 256" style="rounded=0;whiteSpace=wrap;html=1;rotation=-90;fillColor=#b0e3e6;strokeColor=#0e8088;" vertex="1" parent="1">
          <mxGeometry x="270" y="850" width="120" height="30" as="geometry" />
        </mxCell>
        <mxCell id="G9T1TqWtmPURdtRibpyq-245" style="edgeStyle=orthogonalEdgeStyle;rounded=0;orthogonalLoop=1;jettySize=auto;html=1;exitX=0.5;exitY=1;exitDx=0;exitDy=0;entryX=0.5;entryY=0;entryDx=0;entryDy=0;" edge="1" parent="1" source="G9T1TqWtmPURdtRibpyq-230" target="G9T1TqWtmPURdtRibpyq-231">
          <mxGeometry relative="1" as="geometry" />
        </mxCell>
        <mxCell id="G9T1TqWtmPURdtRibpyq-230" value="3&lt;span lang=&quot;ru&quot; class=&quot;BxUVEf ILfuVd&quot;&gt;&lt;span class=&quot;hgKElc&quot;&gt;&lt;b&gt;×&lt;/b&gt;&lt;/span&gt;&lt;/span&gt;3 Conv, 256" style="rounded=0;whiteSpace=wrap;html=1;rotation=-90;fillColor=#b0e3e6;strokeColor=#0e8088;" vertex="1" parent="1">
          <mxGeometry x="323" y="850" width="120" height="30" as="geometry" />
        </mxCell>
        <mxCell id="G9T1TqWtmPURdtRibpyq-246" style="edgeStyle=orthogonalEdgeStyle;rounded=0;orthogonalLoop=1;jettySize=auto;html=1;exitX=0.5;exitY=1;exitDx=0;exitDy=0;entryX=0.5;entryY=0;entryDx=0;entryDy=0;" edge="1" parent="1" source="G9T1TqWtmPURdtRibpyq-231" target="G9T1TqWtmPURdtRibpyq-232">
          <mxGeometry relative="1" as="geometry" />
        </mxCell>
        <mxCell id="G9T1TqWtmPURdtRibpyq-231" value="3&lt;span lang=&quot;ru&quot; class=&quot;BxUVEf ILfuVd&quot;&gt;&lt;span class=&quot;hgKElc&quot;&gt;&lt;b&gt;×&lt;/b&gt;&lt;/span&gt;&lt;/span&gt;3 Conv, 256" style="rounded=0;whiteSpace=wrap;html=1;rotation=-90;fillColor=#b0e3e6;strokeColor=#0e8088;" vertex="1" parent="1">
          <mxGeometry x="377" y="850" width="120" height="30" as="geometry" />
        </mxCell>
        <mxCell id="G9T1TqWtmPURdtRibpyq-247" style="edgeStyle=orthogonalEdgeStyle;rounded=0;orthogonalLoop=1;jettySize=auto;html=1;exitX=0.5;exitY=1;exitDx=0;exitDy=0;entryX=0.5;entryY=0;entryDx=0;entryDy=0;" edge="1" parent="1" source="G9T1TqWtmPURdtRibpyq-232" target="G9T1TqWtmPURdtRibpyq-233">
          <mxGeometry relative="1" as="geometry" />
        </mxCell>
        <mxCell id="G9T1TqWtmPURdtRibpyq-232" value="3&lt;span lang=&quot;ru&quot; class=&quot;BxUVEf ILfuVd&quot;&gt;&lt;span class=&quot;hgKElc&quot;&gt;&lt;b&gt;×&lt;/b&gt;&lt;/span&gt;&lt;/span&gt;3 Conv, 256" style="rounded=0;whiteSpace=wrap;html=1;rotation=-90;fillColor=#b0e3e6;strokeColor=#0e8088;" vertex="1" parent="1">
          <mxGeometry x="430" y="850" width="120" height="30" as="geometry" />
        </mxCell>
        <mxCell id="G9T1TqWtmPURdtRibpyq-248" style="edgeStyle=orthogonalEdgeStyle;rounded=0;orthogonalLoop=1;jettySize=auto;html=1;exitX=0.5;exitY=1;exitDx=0;exitDy=0;" edge="1" parent="1" source="G9T1TqWtmPURdtRibpyq-233" target="G9T1TqWtmPURdtRibpyq-234">
          <mxGeometry relative="1" as="geometry" />
        </mxCell>
        <mxCell id="G9T1TqWtmPURdtRibpyq-233" value="3&lt;span lang=&quot;ru&quot; class=&quot;BxUVEf ILfuVd&quot;&gt;&lt;span class=&quot;hgKElc&quot;&gt;&lt;b&gt;×&lt;/b&gt;&lt;/span&gt;&lt;/span&gt;3 Conv, 256" style="rounded=0;whiteSpace=wrap;html=1;rotation=-90;fillColor=#b0e3e6;strokeColor=#0e8088;" vertex="1" parent="1">
          <mxGeometry x="483" y="850" width="120" height="30" as="geometry" />
        </mxCell>
        <mxCell id="G9T1TqWtmPURdtRibpyq-249" style="edgeStyle=orthogonalEdgeStyle;rounded=0;orthogonalLoop=1;jettySize=auto;html=1;exitX=0.5;exitY=1;exitDx=0;exitDy=0;" edge="1" parent="1" source="G9T1TqWtmPURdtRibpyq-234" target="G9T1TqWtmPURdtRibpyq-238">
          <mxGeometry relative="1" as="geometry" />
        </mxCell>
        <mxCell id="G9T1TqWtmPURdtRibpyq-234" value="3&lt;span lang=&quot;ru&quot; class=&quot;BxUVEf ILfuVd&quot;&gt;&lt;span class=&quot;hgKElc&quot;&gt;&lt;b&gt;×&lt;/b&gt;&lt;/span&gt;&lt;/span&gt;3 Conv, 256" style="rounded=0;whiteSpace=wrap;html=1;rotation=-90;fillColor=#b0e3e6;strokeColor=#0e8088;" vertex="1" parent="1">
          <mxGeometry x="537" y="850" width="120" height="30" as="geometry" />
        </mxCell>
        <mxCell id="G9T1TqWtmPURdtRibpyq-250" style="edgeStyle=orthogonalEdgeStyle;rounded=0;orthogonalLoop=1;jettySize=auto;html=1;exitX=0.5;exitY=1;exitDx=0;exitDy=0;entryX=0.5;entryY=0;entryDx=0;entryDy=0;" edge="1" parent="1" source="G9T1TqWtmPURdtRibpyq-238" target="G9T1TqWtmPURdtRibpyq-239">
          <mxGeometry relative="1" as="geometry" />
        </mxCell>
        <mxCell id="G9T1TqWtmPURdtRibpyq-238" value="3&lt;span lang=&quot;ru&quot; class=&quot;BxUVEf ILfuVd&quot;&gt;&lt;span class=&quot;hgKElc&quot;&gt;&lt;b&gt;×&lt;/b&gt;&lt;/span&gt;&lt;/span&gt;3 Conv, 256" style="rounded=0;whiteSpace=wrap;html=1;rotation=-90;fillColor=#b0e3e6;strokeColor=#0e8088;" vertex="1" parent="1">
          <mxGeometry x="590" y="850" width="120" height="30" as="geometry" />
        </mxCell>
        <mxCell id="G9T1TqWtmPURdtRibpyq-251" style="edgeStyle=orthogonalEdgeStyle;rounded=0;orthogonalLoop=1;jettySize=auto;html=1;exitX=0.5;exitY=1;exitDx=0;exitDy=0;entryX=0.5;entryY=0;entryDx=0;entryDy=0;" edge="1" parent="1" source="G9T1TqWtmPURdtRibpyq-239" target="G9T1TqWtmPURdtRibpyq-240">
          <mxGeometry relative="1" as="geometry" />
        </mxCell>
        <mxCell id="G9T1TqWtmPURdtRibpyq-239" value="3&lt;span lang=&quot;ru&quot; class=&quot;BxUVEf ILfuVd&quot;&gt;&lt;span class=&quot;hgKElc&quot;&gt;&lt;b&gt;×&lt;/b&gt;&lt;/span&gt;&lt;/span&gt;3 Conv, 256" style="rounded=0;whiteSpace=wrap;html=1;rotation=-90;fillColor=#b0e3e6;strokeColor=#0e8088;" vertex="1" parent="1">
          <mxGeometry x="643" y="850" width="120" height="30" as="geometry" />
        </mxCell>
        <mxCell id="G9T1TqWtmPURdtRibpyq-280" style="edgeStyle=orthogonalEdgeStyle;rounded=0;orthogonalLoop=1;jettySize=auto;html=1;exitX=0.5;exitY=1;exitDx=0;exitDy=0;entryX=0.5;entryY=0;entryDx=0;entryDy=0;" edge="1" parent="1" source="G9T1TqWtmPURdtRibpyq-240" target="G9T1TqWtmPURdtRibpyq-255">
          <mxGeometry relative="1" as="geometry" />
        </mxCell>
        <mxCell id="G9T1TqWtmPURdtRibpyq-240" value="3&lt;span lang=&quot;ru&quot; class=&quot;BxUVEf ILfuVd&quot;&gt;&lt;span class=&quot;hgKElc&quot;&gt;&lt;b&gt;×&lt;/b&gt;&lt;/span&gt;&lt;/span&gt;3 Conv, 256" style="rounded=0;whiteSpace=wrap;html=1;rotation=-90;fillColor=#b0e3e6;strokeColor=#0e8088;" vertex="1" parent="1">
          <mxGeometry x="697" y="850" width="120" height="30" as="geometry" />
        </mxCell>
        <mxCell id="G9T1TqWtmPURdtRibpyq-281" style="edgeStyle=orthogonalEdgeStyle;rounded=0;orthogonalLoop=1;jettySize=auto;html=1;exitX=0.5;exitY=1;exitDx=0;exitDy=0;entryX=0.5;entryY=0;entryDx=0;entryDy=0;" edge="1" parent="1" source="G9T1TqWtmPURdtRibpyq-255" target="G9T1TqWtmPURdtRibpyq-256">
          <mxGeometry relative="1" as="geometry" />
        </mxCell>
        <mxCell id="G9T1TqWtmPURdtRibpyq-255" value="3&lt;span lang=&quot;ru&quot; class=&quot;BxUVEf ILfuVd&quot;&gt;&lt;span class=&quot;hgKElc&quot;&gt;&lt;b&gt;×&lt;/b&gt;&lt;/span&gt;&lt;/span&gt;3 Conv, 512, /2 " style="rounded=0;whiteSpace=wrap;html=1;rotation=-90;fillColor=#fad9d5;strokeColor=#ae4132;" vertex="1" parent="1">
          <mxGeometry x="751" y="850" width="120" height="30" as="geometry" />
        </mxCell>
        <mxCell id="G9T1TqWtmPURdtRibpyq-282" style="edgeStyle=orthogonalEdgeStyle;rounded=0;orthogonalLoop=1;jettySize=auto;html=1;exitX=0.5;exitY=1;exitDx=0;exitDy=0;entryX=0.5;entryY=0;entryDx=0;entryDy=0;" edge="1" parent="1" source="G9T1TqWtmPURdtRibpyq-256" target="G9T1TqWtmPURdtRibpyq-257">
          <mxGeometry relative="1" as="geometry" />
        </mxCell>
        <mxCell id="G9T1TqWtmPURdtRibpyq-256" value="3&lt;span lang=&quot;ru&quot; class=&quot;BxUVEf ILfuVd&quot;&gt;&lt;span class=&quot;hgKElc&quot;&gt;&lt;b&gt;×&lt;/b&gt;&lt;/span&gt;&lt;/span&gt;3 Conv, 512" style="rounded=0;whiteSpace=wrap;html=1;rotation=-90;fillColor=#fad9d5;strokeColor=#ae4132;" vertex="1" parent="1">
          <mxGeometry x="803" y="850" width="120" height="30" as="geometry" />
        </mxCell>
        <mxCell id="G9T1TqWtmPURdtRibpyq-283" style="edgeStyle=orthogonalEdgeStyle;rounded=0;orthogonalLoop=1;jettySize=auto;html=1;exitX=0.5;exitY=1;exitDx=0;exitDy=0;entryX=0.5;entryY=0;entryDx=0;entryDy=0;" edge="1" parent="1" source="G9T1TqWtmPURdtRibpyq-257" target="G9T1TqWtmPURdtRibpyq-259">
          <mxGeometry relative="1" as="geometry" />
        </mxCell>
        <mxCell id="G9T1TqWtmPURdtRibpyq-257" value="3&lt;span lang=&quot;ru&quot; class=&quot;BxUVEf ILfuVd&quot;&gt;&lt;span class=&quot;hgKElc&quot;&gt;&lt;b&gt;×&lt;/b&gt;&lt;/span&gt;&lt;/span&gt;3 Conv, 512" style="rounded=0;whiteSpace=wrap;html=1;rotation=-90;fillColor=#fad9d5;strokeColor=#ae4132;" vertex="1" parent="1">
          <mxGeometry x="857" y="850" width="120" height="30" as="geometry" />
        </mxCell>
        <mxCell id="G9T1TqWtmPURdtRibpyq-291" style="edgeStyle=orthogonalEdgeStyle;rounded=0;orthogonalLoop=1;jettySize=auto;html=1;exitX=0.5;exitY=1;exitDx=0;exitDy=0;entryX=0.5;entryY=0;entryDx=0;entryDy=0;" edge="1" parent="1" source="G9T1TqWtmPURdtRibpyq-259" target="G9T1TqWtmPURdtRibpyq-260">
          <mxGeometry relative="1" as="geometry">
            <Array as="points">
              <mxPoint x="1005" y="865" />
              <mxPoint x="1005" y="960" />
              <mxPoint x="135" y="960" />
              <mxPoint x="135" y="1085" />
            </Array>
          </mxGeometry>
        </mxCell>
        <mxCell id="G9T1TqWtmPURdtRibpyq-259" value="3&lt;span lang=&quot;ru&quot; class=&quot;BxUVEf ILfuVd&quot;&gt;&lt;span class=&quot;hgKElc&quot;&gt;&lt;b&gt;×&lt;/b&gt;&lt;/span&gt;&lt;/span&gt;3 Conv, 512" style="rounded=0;whiteSpace=wrap;html=1;rotation=-90;fillColor=#fad9d5;strokeColor=#ae4132;" vertex="1" parent="1">
          <mxGeometry x="910" y="850" width="120" height="30" as="geometry" />
        </mxCell>
        <mxCell id="G9T1TqWtmPURdtRibpyq-295" style="edgeStyle=orthogonalEdgeStyle;rounded=0;orthogonalLoop=1;jettySize=auto;html=1;exitX=0.5;exitY=1;exitDx=0;exitDy=0;entryX=0.5;entryY=0;entryDx=0;entryDy=0;" edge="1" parent="1" source="G9T1TqWtmPURdtRibpyq-260" target="G9T1TqWtmPURdtRibpyq-261">
          <mxGeometry relative="1" as="geometry" />
        </mxCell>
        <mxCell id="G9T1TqWtmPURdtRibpyq-260" value="3&lt;span lang=&quot;ru&quot; class=&quot;BxUVEf ILfuVd&quot;&gt;&lt;span class=&quot;hgKElc&quot;&gt;&lt;b&gt;×&lt;/b&gt;&lt;/span&gt;&lt;/span&gt;3 Conv, 512" style="rounded=0;whiteSpace=wrap;html=1;rotation=-90;fillColor=#fad9d5;strokeColor=#ae4132;" vertex="1" parent="1">
          <mxGeometry x="110" y="1070" width="120" height="30" as="geometry" />
        </mxCell>
        <mxCell id="G9T1TqWtmPURdtRibpyq-296" style="edgeStyle=orthogonalEdgeStyle;rounded=0;orthogonalLoop=1;jettySize=auto;html=1;exitX=0.5;exitY=1;exitDx=0;exitDy=0;entryX=0.5;entryY=0;entryDx=0;entryDy=0;" edge="1" parent="1" source="G9T1TqWtmPURdtRibpyq-261" target="G9T1TqWtmPURdtRibpyq-262">
          <mxGeometry relative="1" as="geometry" />
        </mxCell>
        <mxCell id="G9T1TqWtmPURdtRibpyq-261" value="3&lt;span lang=&quot;ru&quot; class=&quot;BxUVEf ILfuVd&quot;&gt;&lt;span class=&quot;hgKElc&quot;&gt;&lt;b&gt;×&lt;/b&gt;&lt;/span&gt;&lt;/span&gt;3 Conv, 512" style="rounded=0;whiteSpace=wrap;html=1;rotation=-90;fillColor=#fad9d5;strokeColor=#ae4132;" vertex="1" parent="1">
          <mxGeometry x="160" y="1070" width="120" height="30" as="geometry" />
        </mxCell>
        <mxCell id="G9T1TqWtmPURdtRibpyq-297" style="edgeStyle=orthogonalEdgeStyle;rounded=0;orthogonalLoop=1;jettySize=auto;html=1;exitX=0.5;exitY=1;exitDx=0;exitDy=0;entryX=0.5;entryY=0;entryDx=0;entryDy=0;" edge="1" parent="1" source="G9T1TqWtmPURdtRibpyq-262" target="G9T1TqWtmPURdtRibpyq-263">
          <mxGeometry relative="1" as="geometry" />
        </mxCell>
        <mxCell id="G9T1TqWtmPURdtRibpyq-262" value="Avg-Pool" style="rounded=0;whiteSpace=wrap;html=1;rotation=-90;fillColor=#e1d5e7;strokeColor=#9673a6;" vertex="1" parent="1">
          <mxGeometry x="210" y="1070" width="120" height="30" as="geometry" />
        </mxCell>
        <mxCell id="G9T1TqWtmPURdtRibpyq-299" style="edgeStyle=orthogonalEdgeStyle;rounded=0;orthogonalLoop=1;jettySize=auto;html=1;exitX=0.5;exitY=1;exitDx=0;exitDy=0;" edge="1" parent="1" source="G9T1TqWtmPURdtRibpyq-263" target="G9T1TqWtmPURdtRibpyq-264">
          <mxGeometry relative="1" as="geometry" />
        </mxCell>
        <mxCell id="G9T1TqWtmPURdtRibpyq-263" value="&amp;nbsp;FC 1000" style="rounded=0;whiteSpace=wrap;html=1;rotation=-90;fillColor=#d5e8d4;strokeColor=#82b366;" vertex="1" parent="1">
          <mxGeometry x="260" y="1070" width="120" height="30" as="geometry" />
        </mxCell>
        <mxCell id="G9T1TqWtmPURdtRibpyq-264" value="Результат классификации" style="text;html=1;align=center;verticalAlign=middle;whiteSpace=wrap;rounded=0;rotation=-90;" vertex="1" parent="1">
          <mxGeometry x="343" y="1065" width="80" height="40" as="geometry" />
        </mxCell>
        <mxCell id="G9T1TqWtmPURdtRibpyq-265" value="" style="group;dashed=1;" vertex="1" connectable="0" parent="1">
          <mxGeometry x="140" y="770" width="103" height="95" as="geometry" />
        </mxCell>
        <mxCell id="G9T1TqWtmPURdtRibpyq-266" value="" style="endArrow=none;html=1;rounded=0;endFill=0;dashed=1;" edge="1" parent="G9T1TqWtmPURdtRibpyq-265">
          <mxGeometry relative="1" as="geometry">
            <mxPoint y="95" as="sourcePoint" />
            <mxPoint x="103" y="95" as="targetPoint" />
            <Array as="points">
              <mxPoint y="5.000000000000001" />
              <mxPoint x="46.81818181818183" y="5.000000000000001" />
              <mxPoint x="103" y="5.000000000000001" />
              <mxPoint x="103" y="35.000000000000014" />
            </Array>
          </mxGeometry>
        </mxCell>
        <mxCell id="G9T1TqWtmPURdtRibpyq-267" value="" style="triangle;whiteSpace=wrap;html=1;fillColor=#000000;" vertex="1" parent="G9T1TqWtmPURdtRibpyq-265">
          <mxGeometry x="48.690909090909095" width="9.363636363636363" height="10.000000000000002" as="geometry" />
        </mxCell>
        <mxCell id="G9T1TqWtmPURdtRibpyq-268" value="" style="group" vertex="1" connectable="0" parent="1">
          <mxGeometry x="248" y="770" width="103" height="95" as="geometry" />
        </mxCell>
        <mxCell id="G9T1TqWtmPURdtRibpyq-269" value="" style="endArrow=none;html=1;rounded=0;endFill=0;" edge="1" parent="G9T1TqWtmPURdtRibpyq-268">
          <mxGeometry relative="1" as="geometry">
            <mxPoint y="95" as="sourcePoint" />
            <mxPoint x="103" y="95" as="targetPoint" />
            <Array as="points">
              <mxPoint y="5" />
              <mxPoint x="46.81818181818182" y="5" />
              <mxPoint x="103" y="5" />
              <mxPoint x="103" y="35" />
            </Array>
          </mxGeometry>
        </mxCell>
        <mxCell id="G9T1TqWtmPURdtRibpyq-270" value="" style="triangle;whiteSpace=wrap;html=1;fillColor=#000000;" vertex="1" parent="G9T1TqWtmPURdtRibpyq-268">
          <mxGeometry x="48.690909090909095" width="9.363636363636363" height="10" as="geometry" />
        </mxCell>
        <mxCell id="G9T1TqWtmPURdtRibpyq-271" value="" style="group" vertex="1" connectable="0" parent="1">
          <mxGeometry x="355" y="770" width="103" height="95" as="geometry" />
        </mxCell>
        <mxCell id="G9T1TqWtmPURdtRibpyq-272" value="" style="endArrow=none;html=1;rounded=0;endFill=0;" edge="1" parent="G9T1TqWtmPURdtRibpyq-271">
          <mxGeometry relative="1" as="geometry">
            <mxPoint y="95" as="sourcePoint" />
            <mxPoint x="103" y="95" as="targetPoint" />
            <Array as="points">
              <mxPoint y="5" />
              <mxPoint x="46.81818181818182" y="5" />
              <mxPoint x="103" y="5" />
              <mxPoint x="103" y="35" />
            </Array>
          </mxGeometry>
        </mxCell>
        <mxCell id="G9T1TqWtmPURdtRibpyq-273" value="" style="triangle;whiteSpace=wrap;html=1;fillColor=#000000;" vertex="1" parent="G9T1TqWtmPURdtRibpyq-271">
          <mxGeometry x="48.690909090909095" width="9.363636363636363" height="10" as="geometry" />
        </mxCell>
        <mxCell id="G9T1TqWtmPURdtRibpyq-274" value="" style="group" vertex="1" connectable="0" parent="1">
          <mxGeometry x="462" y="770" width="103" height="95" as="geometry" />
        </mxCell>
        <mxCell id="G9T1TqWtmPURdtRibpyq-275" value="" style="endArrow=none;html=1;rounded=0;endFill=0;" edge="1" parent="G9T1TqWtmPURdtRibpyq-274">
          <mxGeometry relative="1" as="geometry">
            <mxPoint y="95" as="sourcePoint" />
            <mxPoint x="103" y="95" as="targetPoint" />
            <Array as="points">
              <mxPoint y="5" />
              <mxPoint x="46.81818181818182" y="5" />
              <mxPoint x="103" y="5" />
              <mxPoint x="103" y="35" />
            </Array>
          </mxGeometry>
        </mxCell>
        <mxCell id="G9T1TqWtmPURdtRibpyq-276" value="" style="triangle;whiteSpace=wrap;html=1;fillColor=#000000;" vertex="1" parent="G9T1TqWtmPURdtRibpyq-274">
          <mxGeometry x="48.690909090909095" width="9.363636363636363" height="10" as="geometry" />
        </mxCell>
        <mxCell id="G9T1TqWtmPURdtRibpyq-277" value="" style="group" vertex="1" connectable="0" parent="1">
          <mxGeometry x="569" y="770" width="103" height="95" as="geometry" />
        </mxCell>
        <mxCell id="G9T1TqWtmPURdtRibpyq-278" value="" style="endArrow=none;html=1;rounded=0;endFill=0;" edge="1" parent="G9T1TqWtmPURdtRibpyq-277">
          <mxGeometry relative="1" as="geometry">
            <mxPoint y="95" as="sourcePoint" />
            <mxPoint x="103" y="95" as="targetPoint" />
            <Array as="points">
              <mxPoint y="5" />
              <mxPoint x="46.81818181818182" y="5" />
              <mxPoint x="103" y="5" />
              <mxPoint x="103" y="35" />
            </Array>
          </mxGeometry>
        </mxCell>
        <mxCell id="G9T1TqWtmPURdtRibpyq-279" value="" style="triangle;whiteSpace=wrap;html=1;fillColor=#000000;" vertex="1" parent="G9T1TqWtmPURdtRibpyq-277">
          <mxGeometry x="48.690909090909095" width="9.363636363636363" height="10" as="geometry" />
        </mxCell>
        <mxCell id="G9T1TqWtmPURdtRibpyq-284" value="" style="group" vertex="1" connectable="0" parent="1">
          <mxGeometry x="675" y="770" width="103" height="95" as="geometry" />
        </mxCell>
        <mxCell id="G9T1TqWtmPURdtRibpyq-285" value="" style="endArrow=none;html=1;rounded=0;endFill=0;" edge="1" parent="G9T1TqWtmPURdtRibpyq-284">
          <mxGeometry relative="1" as="geometry">
            <mxPoint y="95" as="sourcePoint" />
            <mxPoint x="103" y="95" as="targetPoint" />
            <Array as="points">
              <mxPoint y="5" />
              <mxPoint x="46.81818181818182" y="5" />
              <mxPoint x="103" y="5" />
              <mxPoint x="103" y="35" />
            </Array>
          </mxGeometry>
        </mxCell>
        <mxCell id="G9T1TqWtmPURdtRibpyq-286" value="" style="triangle;whiteSpace=wrap;html=1;fillColor=#000000;" vertex="1" parent="G9T1TqWtmPURdtRibpyq-284">
          <mxGeometry x="48.690909090909095" width="9.363636363636363" height="10" as="geometry" />
        </mxCell>
        <mxCell id="G9T1TqWtmPURdtRibpyq-287" value="" style="group;dashed=1;" vertex="1" connectable="0" parent="1">
          <mxGeometry x="783" y="770" width="103" height="95" as="geometry" />
        </mxCell>
        <mxCell id="G9T1TqWtmPURdtRibpyq-288" value="" style="endArrow=none;html=1;rounded=0;endFill=0;dashed=1;" edge="1" parent="G9T1TqWtmPURdtRibpyq-287">
          <mxGeometry relative="1" as="geometry">
            <mxPoint y="95" as="sourcePoint" />
            <mxPoint x="103" y="95" as="targetPoint" />
            <Array as="points">
              <mxPoint y="5.000000000000001" />
              <mxPoint x="46.81818181818183" y="5.000000000000001" />
              <mxPoint x="103" y="5.000000000000001" />
              <mxPoint x="103" y="35.000000000000014" />
            </Array>
          </mxGeometry>
        </mxCell>
        <mxCell id="G9T1TqWtmPURdtRibpyq-289" value="" style="triangle;whiteSpace=wrap;html=1;fillColor=#000000;" vertex="1" parent="G9T1TqWtmPURdtRibpyq-287">
          <mxGeometry x="48.690909090909095" width="9.363636363636363" height="10.000000000000002" as="geometry" />
        </mxCell>
        <mxCell id="G9T1TqWtmPURdtRibpyq-292" value="" style="group" vertex="1" connectable="0" parent="1">
          <mxGeometry x="890" y="770" width="103" height="95" as="geometry" />
        </mxCell>
        <mxCell id="G9T1TqWtmPURdtRibpyq-293" value="" style="endArrow=none;html=1;rounded=0;endFill=0;" edge="1" parent="G9T1TqWtmPURdtRibpyq-292">
          <mxGeometry relative="1" as="geometry">
            <mxPoint y="95" as="sourcePoint" />
            <mxPoint x="103" y="95" as="targetPoint" />
            <Array as="points">
              <mxPoint y="5" />
              <mxPoint x="46.81818181818182" y="5" />
              <mxPoint x="103" y="5" />
              <mxPoint x="103" y="35" />
            </Array>
          </mxGeometry>
        </mxCell>
        <mxCell id="G9T1TqWtmPURdtRibpyq-294" value="" style="triangle;whiteSpace=wrap;html=1;fillColor=#000000;" vertex="1" parent="G9T1TqWtmPURdtRibpyq-292">
          <mxGeometry x="48.690909090909095" width="9.363636363636363" height="10" as="geometry" />
        </mxCell>
        <mxCell id="G9T1TqWtmPURdtRibpyq-300" value="" style="group" vertex="1" connectable="0" parent="1">
          <mxGeometry x="140" y="990" width="103" height="95" as="geometry" />
        </mxCell>
        <mxCell id="G9T1TqWtmPURdtRibpyq-301" value="" style="endArrow=none;html=1;rounded=0;endFill=0;" edge="1" parent="G9T1TqWtmPURdtRibpyq-300">
          <mxGeometry relative="1" as="geometry">
            <mxPoint y="95" as="sourcePoint" />
            <mxPoint x="103" y="95" as="targetPoint" />
            <Array as="points">
              <mxPoint y="5" />
              <mxPoint x="46.81818181818182" y="5" />
              <mxPoint x="103" y="5" />
              <mxPoint x="103" y="35" />
            </Array>
          </mxGeometry>
        </mxCell>
        <mxCell id="G9T1TqWtmPURdtRibpyq-302" value="" style="triangle;whiteSpace=wrap;html=1;fillColor=#000000;" vertex="1" parent="G9T1TqWtmPURdtRibpyq-300">
          <mxGeometry x="48.690909090909095" width="9.363636363636363" height="10" as="geometry" />
        </mxCell>
        <mxCell id="G9T1TqWtmPURdtRibpyq-304" value="Входное изображение" style="text;html=1;align=center;verticalAlign=middle;whiteSpace=wrap;rounded=0;rotation=0;" vertex="1" parent="1">
          <mxGeometry x="304" y="1270" width="80" height="40" as="geometry" />
        </mxCell>
        <mxCell id="G9T1TqWtmPURdtRibpyq-343" value="&lt;font style=&quot;font-size: 34px;&quot;&gt;MobileNet&lt;/font&gt;" style="text;html=1;align=center;verticalAlign=middle;whiteSpace=wrap;rounded=0;" vertex="1" parent="1">
          <mxGeometry x="397.5" y="1190" width="130" height="90" as="geometry" />
        </mxCell>
        <mxCell id="G9T1TqWtmPURdtRibpyq-347" value="" style="html=1;shadow=0;dashed=0;align=center;verticalAlign=middle;shape=mxgraph.arrows2.arrow;dy=0.6;dx=40;notch=0;rotation=-180;" vertex="1" parent="1">
          <mxGeometry x="1360" y="1275" width="97" height="30" as="geometry" />
        </mxCell>
        <mxCell id="G9T1TqWtmPURdtRibpyq-350" value="&lt;div&gt;Разделяемая свертка по глубине&lt;/div&gt;&lt;div&gt;(Depthwise Separable Convolution)&lt;/div&gt;" style="text;html=1;align=center;verticalAlign=middle;resizable=0;points=[];autosize=1;strokeColor=none;fillColor=none;" vertex="1" parent="1">
          <mxGeometry x="521" y="1314" width="210" height="40" as="geometry" />
        </mxCell>
        <mxCell id="G9T1TqWtmPURdtRibpyq-362" style="edgeStyle=orthogonalEdgeStyle;rounded=0;orthogonalLoop=1;jettySize=auto;html=1;exitX=0.5;exitY=1;exitDx=0;exitDy=0;entryX=0.5;entryY=0;entryDx=0;entryDy=0;" edge="1" parent="1" source="G9T1TqWtmPURdtRibpyq-353" target="G9T1TqWtmPURdtRibpyq-357">
          <mxGeometry relative="1" as="geometry" />
        </mxCell>
        <mxCell id="G9T1TqWtmPURdtRibpyq-353" value="1&lt;span lang=&quot;ru&quot; class=&quot;BxUVEf ILfuVd&quot;&gt;&lt;span class=&quot;hgKElc&quot;&gt;&lt;b&gt;×&lt;/b&gt;&lt;/span&gt;&lt;/span&gt;1 Conv " style="rounded=0;whiteSpace=wrap;html=1;rotation=0;fillColor=#ffe6cc;strokeColor=#d79b00;" vertex="1" parent="1">
          <mxGeometry x="570.5" y="1519" width="120" height="30" as="geometry" />
        </mxCell>
        <mxCell id="G9T1TqWtmPURdtRibpyq-360" style="edgeStyle=orthogonalEdgeStyle;rounded=0;orthogonalLoop=1;jettySize=auto;html=1;exitX=0.5;exitY=1;exitDx=0;exitDy=0;entryX=0.5;entryY=0;entryDx=0;entryDy=0;" edge="1" parent="1" source="G9T1TqWtmPURdtRibpyq-354" target="G9T1TqWtmPURdtRibpyq-358">
          <mxGeometry relative="1" as="geometry" />
        </mxCell>
        <mxCell id="G9T1TqWtmPURdtRibpyq-354" value="BN" style="rounded=0;whiteSpace=wrap;html=1;rotation=0;fillColor=#bac8d3;strokeColor=#23445d;" vertex="1" parent="1">
          <mxGeometry x="570.5" y="1419" width="120" height="30" as="geometry" />
        </mxCell>
        <mxCell id="G9T1TqWtmPURdtRibpyq-355" value="ReLU" style="rounded=0;whiteSpace=wrap;html=1;rotation=0;fillColor=#d0cee2;strokeColor=#56517e;" vertex="1" parent="1">
          <mxGeometry x="570.5" y="1619" width="120" height="30" as="geometry" />
        </mxCell>
        <mxCell id="G9T1TqWtmPURdtRibpyq-359" style="edgeStyle=orthogonalEdgeStyle;rounded=0;orthogonalLoop=1;jettySize=auto;html=1;exitX=0.5;exitY=1;exitDx=0;exitDy=0;entryX=0.5;entryY=0;entryDx=0;entryDy=0;" edge="1" parent="1" source="G9T1TqWtmPURdtRibpyq-356" target="G9T1TqWtmPURdtRibpyq-354">
          <mxGeometry relative="1" as="geometry" />
        </mxCell>
        <mxCell id="G9T1TqWtmPURdtRibpyq-356" value="3&lt;span lang=&quot;ru&quot; class=&quot;BxUVEf ILfuVd&quot;&gt;&lt;span class=&quot;hgKElc&quot;&gt;&lt;b&gt;×&lt;/b&gt;&lt;/span&gt;&lt;/span&gt;3 Conv " style="rounded=0;whiteSpace=wrap;html=1;rotation=0;fillColor=#ffe6cc;strokeColor=#d79b00;" vertex="1" parent="1">
          <mxGeometry x="570.5" y="1369" width="120" height="30" as="geometry" />
        </mxCell>
        <mxCell id="G9T1TqWtmPURdtRibpyq-363" style="edgeStyle=orthogonalEdgeStyle;rounded=0;orthogonalLoop=1;jettySize=auto;html=1;exitX=0.5;exitY=1;exitDx=0;exitDy=0;entryX=0.5;entryY=0;entryDx=0;entryDy=0;" edge="1" parent="1" source="G9T1TqWtmPURdtRibpyq-357" target="G9T1TqWtmPURdtRibpyq-355">
          <mxGeometry relative="1" as="geometry" />
        </mxCell>
        <mxCell id="G9T1TqWtmPURdtRibpyq-357" value="BN" style="rounded=0;whiteSpace=wrap;html=1;rotation=0;fillColor=#bac8d3;strokeColor=#23445d;" vertex="1" parent="1">
          <mxGeometry x="570.5" y="1569" width="120" height="30" as="geometry" />
        </mxCell>
        <mxCell id="G9T1TqWtmPURdtRibpyq-361" style="edgeStyle=orthogonalEdgeStyle;rounded=0;orthogonalLoop=1;jettySize=auto;html=1;exitX=0.5;exitY=1;exitDx=0;exitDy=0;" edge="1" parent="1" source="G9T1TqWtmPURdtRibpyq-358" target="G9T1TqWtmPURdtRibpyq-353">
          <mxGeometry relative="1" as="geometry" />
        </mxCell>
        <mxCell id="G9T1TqWtmPURdtRibpyq-358" value="ReLU" style="rounded=0;whiteSpace=wrap;html=1;rotation=0;fillColor=#d0cee2;strokeColor=#56517e;" vertex="1" parent="1">
          <mxGeometry x="570.5" y="1469" width="120" height="30" as="geometry" />
        </mxCell>
        <mxCell id="G9T1TqWtmPURdtRibpyq-373" value="" style="group" vertex="1" connectable="0" parent="1">
          <mxGeometry x="230" y="1334" width="174" height="56" as="geometry" />
        </mxCell>
        <mxCell id="G9T1TqWtmPURdtRibpyq-351" style="edgeStyle=orthogonalEdgeStyle;rounded=0;orthogonalLoop=1;jettySize=auto;html=1;exitX=0.5;exitY=1;exitDx=0;exitDy=0;" edge="1" parent="G9T1TqWtmPURdtRibpyq-373" source="G9T1TqWtmPURdtRibpyq-304" target="G9T1TqWtmPURdtRibpyq-344">
          <mxGeometry relative="1" as="geometry" />
        </mxCell>
        <mxCell id="G9T1TqWtmPURdtRibpyq-344" value="3&lt;span lang=&quot;ru&quot; class=&quot;BxUVEf ILfuVd&quot;&gt;&lt;span class=&quot;hgKElc&quot;&gt;&lt;b&gt;×&lt;/b&gt;&lt;/span&gt;&lt;/span&gt;3 Conv " style="rounded=0;whiteSpace=wrap;html=1;rotation=0;fillColor=#ffe6cc;strokeColor=#d79b00;" vertex="1" parent="G9T1TqWtmPURdtRibpyq-373">
          <mxGeometry x="54" y="26" width="120" height="30" as="geometry" />
        </mxCell>
        <mxCell id="G9T1TqWtmPURdtRibpyq-366" value="224&amp;nbsp;&lt;span lang=&quot;ru&quot; class=&quot;BxUVEf ILfuVd&quot;&gt;&lt;span class=&quot;hgKElc&quot;&gt;&lt;b&gt;×&lt;/b&gt;&lt;/span&gt;&lt;/span&gt; 224&amp;nbsp;&lt;span lang=&quot;ru&quot; class=&quot;BxUVEf ILfuVd&quot;&gt;&lt;span class=&quot;hgKElc&quot;&gt;&lt;b&gt;×&lt;/b&gt;&lt;/span&gt;&lt;/span&gt; 3" style="text;html=1;align=center;verticalAlign=middle;resizable=0;points=[];autosize=1;strokeColor=none;fillColor=none;" vertex="1" parent="G9T1TqWtmPURdtRibpyq-373">
          <mxGeometry width="100" height="30" as="geometry" />
        </mxCell>
        <mxCell id="G9T1TqWtmPURdtRibpyq-380" value="" style="group" vertex="1" connectable="0" parent="1">
          <mxGeometry x="230" y="1390" width="174" height="56" as="geometry" />
        </mxCell>
        <mxCell id="G9T1TqWtmPURdtRibpyq-381" style="edgeStyle=orthogonalEdgeStyle;rounded=0;orthogonalLoop=1;jettySize=auto;html=1;exitX=0.5;exitY=1;exitDx=0;exitDy=0;" edge="1" parent="G9T1TqWtmPURdtRibpyq-380" target="G9T1TqWtmPURdtRibpyq-382">
          <mxGeometry relative="1" as="geometry" />
        </mxCell>
        <mxCell id="G9T1TqWtmPURdtRibpyq-382" value="DS Conv&amp;nbsp;&lt;span lang=&quot;ru&quot; class=&quot;BxUVEf ILfuVd&quot;&gt;&lt;span class=&quot;hgKElc&quot;&gt;&lt;b&gt;×&lt;/b&gt;&lt;/span&gt;&lt;/span&gt; 2 " style="rounded=0;whiteSpace=wrap;html=1;rotation=0;fillColor=#fad9d5;strokeColor=#ae4132;" vertex="1" parent="G9T1TqWtmPURdtRibpyq-380">
          <mxGeometry x="54" y="26" width="120" height="30" as="geometry" />
        </mxCell>
        <mxCell id="G9T1TqWtmPURdtRibpyq-383" value="112 &lt;span lang=&quot;ru&quot; class=&quot;BxUVEf ILfuVd&quot;&gt;&lt;span class=&quot;hgKElc&quot;&gt;&lt;b&gt;× &lt;/b&gt;&lt;/span&gt;&lt;/span&gt;112&amp;nbsp;&lt;span lang=&quot;ru&quot; class=&quot;BxUVEf ILfuVd&quot;&gt;&lt;span class=&quot;hgKElc&quot;&gt;&lt;b&gt;×&lt;/b&gt;&lt;/span&gt;&lt;/span&gt; 32" style="text;html=1;align=center;verticalAlign=middle;resizable=0;points=[];autosize=1;strokeColor=none;fillColor=none;" vertex="1" parent="G9T1TqWtmPURdtRibpyq-380">
          <mxGeometry width="100" height="30" as="geometry" />
        </mxCell>
        <mxCell id="G9T1TqWtmPURdtRibpyq-404" value="" style="group" vertex="1" connectable="0" parent="1">
          <mxGeometry x="230" y="1450" width="174" height="56" as="geometry" />
        </mxCell>
        <mxCell id="G9T1TqWtmPURdtRibpyq-405" style="edgeStyle=orthogonalEdgeStyle;rounded=0;orthogonalLoop=1;jettySize=auto;html=1;exitX=0.5;exitY=1;exitDx=0;exitDy=0;" edge="1" parent="G9T1TqWtmPURdtRibpyq-404" target="G9T1TqWtmPURdtRibpyq-406">
          <mxGeometry relative="1" as="geometry" />
        </mxCell>
        <mxCell id="G9T1TqWtmPURdtRibpyq-406" value="DS Conv&amp;nbsp;&lt;span lang=&quot;ru&quot; class=&quot;BxUVEf ILfuVd&quot;&gt;&lt;span class=&quot;hgKElc&quot;&gt;&lt;b&gt;×&lt;/b&gt;&lt;/span&gt;&lt;/span&gt; 2 " style="rounded=0;whiteSpace=wrap;html=1;rotation=0;fillColor=#fad9d5;strokeColor=#ae4132;" vertex="1" parent="G9T1TqWtmPURdtRibpyq-404">
          <mxGeometry x="54" y="26" width="120" height="30" as="geometry" />
        </mxCell>
        <mxCell id="G9T1TqWtmPURdtRibpyq-407" value="56&amp;nbsp;&lt;span lang=&quot;ru&quot; class=&quot;BxUVEf ILfuVd&quot;&gt;&lt;span class=&quot;hgKElc&quot;&gt;&lt;b&gt;×&lt;/b&gt;&lt;/span&gt;&lt;/span&gt; 56&amp;nbsp;&lt;span lang=&quot;ru&quot; class=&quot;BxUVEf ILfuVd&quot;&gt;&lt;span class=&quot;hgKElc&quot;&gt;&lt;b&gt;×&lt;/b&gt;&lt;/span&gt;&lt;/span&gt; 64" style="text;html=1;align=center;verticalAlign=middle;resizable=0;points=[];autosize=1;strokeColor=none;fillColor=none;" vertex="1" parent="G9T1TqWtmPURdtRibpyq-404">
          <mxGeometry x="5" width="90" height="30" as="geometry" />
        </mxCell>
        <mxCell id="G9T1TqWtmPURdtRibpyq-408" value="" style="group" vertex="1" connectable="0" parent="1">
          <mxGeometry x="230" y="1510" width="174" height="56" as="geometry" />
        </mxCell>
        <mxCell id="G9T1TqWtmPURdtRibpyq-409" style="edgeStyle=orthogonalEdgeStyle;rounded=0;orthogonalLoop=1;jettySize=auto;html=1;exitX=0.5;exitY=1;exitDx=0;exitDy=0;" edge="1" parent="G9T1TqWtmPURdtRibpyq-408" target="G9T1TqWtmPURdtRibpyq-410">
          <mxGeometry relative="1" as="geometry" />
        </mxCell>
        <mxCell id="G9T1TqWtmPURdtRibpyq-410" value="DS Conv&amp;nbsp;&lt;span lang=&quot;ru&quot; class=&quot;BxUVEf ILfuVd&quot;&gt;&lt;span class=&quot;hgKElc&quot;&gt;&lt;b&gt;×&lt;/b&gt;&lt;/span&gt;&lt;/span&gt; 2 " style="rounded=0;whiteSpace=wrap;html=1;rotation=0;fillColor=#fad9d5;strokeColor=#ae4132;" vertex="1" parent="G9T1TqWtmPURdtRibpyq-408">
          <mxGeometry x="54" y="26" width="120" height="30" as="geometry" />
        </mxCell>
        <mxCell id="G9T1TqWtmPURdtRibpyq-411" value="28&amp;nbsp;&lt;span lang=&quot;ru&quot; class=&quot;BxUVEf ILfuVd&quot;&gt;&lt;span class=&quot;hgKElc&quot;&gt;&lt;b&gt;×&lt;/b&gt;&lt;/span&gt;&lt;/span&gt; 28&amp;nbsp;&lt;span lang=&quot;ru&quot; class=&quot;BxUVEf ILfuVd&quot;&gt;&lt;span class=&quot;hgKElc&quot;&gt;&lt;b&gt;×&lt;/b&gt;&lt;/span&gt;&lt;/span&gt; 128" style="text;html=1;align=center;verticalAlign=middle;resizable=0;points=[];autosize=1;strokeColor=none;fillColor=none;" vertex="1" parent="G9T1TqWtmPURdtRibpyq-408">
          <mxGeometry width="100" height="30" as="geometry" />
        </mxCell>
        <mxCell id="G9T1TqWtmPURdtRibpyq-412" value="" style="group" vertex="1" connectable="0" parent="1">
          <mxGeometry x="230" y="1570" width="174" height="56" as="geometry" />
        </mxCell>
        <mxCell id="G9T1TqWtmPURdtRibpyq-413" style="edgeStyle=orthogonalEdgeStyle;rounded=0;orthogonalLoop=1;jettySize=auto;html=1;exitX=0.5;exitY=1;exitDx=0;exitDy=0;" edge="1" parent="G9T1TqWtmPURdtRibpyq-412" target="G9T1TqWtmPURdtRibpyq-414">
          <mxGeometry relative="1" as="geometry" />
        </mxCell>
        <mxCell id="G9T1TqWtmPURdtRibpyq-414" value="DS Conv&amp;nbsp;&lt;span lang=&quot;ru&quot; class=&quot;BxUVEf ILfuVd&quot;&gt;&lt;span class=&quot;hgKElc&quot;&gt;&lt;b&gt;×&lt;/b&gt;&lt;/span&gt;&lt;/span&gt; 6 " style="rounded=0;whiteSpace=wrap;html=1;rotation=0;fillColor=#fad9d5;strokeColor=#ae4132;" vertex="1" parent="G9T1TqWtmPURdtRibpyq-412">
          <mxGeometry x="54" y="26" width="120" height="30" as="geometry" />
        </mxCell>
        <mxCell id="G9T1TqWtmPURdtRibpyq-415" value="14&amp;nbsp;&lt;span lang=&quot;ru&quot; class=&quot;BxUVEf ILfuVd&quot;&gt;&lt;span class=&quot;hgKElc&quot;&gt;&lt;b&gt;×&lt;/b&gt;&lt;/span&gt;&lt;/span&gt; 14&amp;nbsp;&lt;span lang=&quot;ru&quot; class=&quot;BxUVEf ILfuVd&quot;&gt;&lt;span class=&quot;hgKElc&quot;&gt;&lt;b&gt;×&lt;/b&gt;&lt;/span&gt;&lt;/span&gt; 256" style="text;html=1;align=center;verticalAlign=middle;resizable=0;points=[];autosize=1;strokeColor=none;fillColor=none;" vertex="1" parent="G9T1TqWtmPURdtRibpyq-412">
          <mxGeometry width="100" height="30" as="geometry" />
        </mxCell>
        <mxCell id="G9T1TqWtmPURdtRibpyq-416" value="" style="group" vertex="1" connectable="0" parent="1">
          <mxGeometry x="230" y="1630" width="174" height="56" as="geometry" />
        </mxCell>
        <mxCell id="G9T1TqWtmPURdtRibpyq-417" style="edgeStyle=orthogonalEdgeStyle;rounded=0;orthogonalLoop=1;jettySize=auto;html=1;exitX=0.5;exitY=1;exitDx=0;exitDy=0;" edge="1" parent="G9T1TqWtmPURdtRibpyq-416" target="G9T1TqWtmPURdtRibpyq-418">
          <mxGeometry relative="1" as="geometry" />
        </mxCell>
        <mxCell id="G9T1TqWtmPURdtRibpyq-418" value="DS Conv " style="rounded=0;whiteSpace=wrap;html=1;rotation=0;fillColor=#fad9d5;strokeColor=#ae4132;" vertex="1" parent="G9T1TqWtmPURdtRibpyq-416">
          <mxGeometry x="54" y="26" width="120" height="30" as="geometry" />
        </mxCell>
        <mxCell id="G9T1TqWtmPURdtRibpyq-419" value="7&amp;nbsp;&lt;span lang=&quot;ru&quot; class=&quot;BxUVEf ILfuVd&quot;&gt;&lt;span class=&quot;hgKElc&quot;&gt;&lt;b&gt;×&lt;/b&gt;&lt;/span&gt;&lt;/span&gt; 7&amp;nbsp;&lt;span lang=&quot;ru&quot; class=&quot;BxUVEf ILfuVd&quot;&gt;&lt;span class=&quot;hgKElc&quot;&gt;&lt;b&gt;×&lt;/b&gt;&lt;/span&gt;&lt;/span&gt; 512" style="text;html=1;align=center;verticalAlign=middle;resizable=0;points=[];autosize=1;strokeColor=none;fillColor=none;" vertex="1" parent="G9T1TqWtmPURdtRibpyq-416">
          <mxGeometry x="10" width="80" height="30" as="geometry" />
        </mxCell>
        <mxCell id="G9T1TqWtmPURdtRibpyq-420" value="" style="group" vertex="1" connectable="0" parent="1">
          <mxGeometry x="230" y="1690" width="174" height="56" as="geometry" />
        </mxCell>
        <mxCell id="G9T1TqWtmPURdtRibpyq-421" style="edgeStyle=orthogonalEdgeStyle;rounded=0;orthogonalLoop=1;jettySize=auto;html=1;exitX=0.5;exitY=1;exitDx=0;exitDy=0;" edge="1" parent="G9T1TqWtmPURdtRibpyq-420" target="G9T1TqWtmPURdtRibpyq-422">
          <mxGeometry relative="1" as="geometry" />
        </mxCell>
        <mxCell id="G9T1TqWtmPURdtRibpyq-422" value="Avg Pool" style="rounded=0;whiteSpace=wrap;html=1;rotation=0;fillColor=#b0e3e6;strokeColor=#0e8088;" vertex="1" parent="G9T1TqWtmPURdtRibpyq-420">
          <mxGeometry x="54" y="26" width="120" height="30" as="geometry" />
        </mxCell>
        <mxCell id="G9T1TqWtmPURdtRibpyq-423" value="7&amp;nbsp;&lt;span lang=&quot;ru&quot; class=&quot;BxUVEf ILfuVd&quot;&gt;&lt;span class=&quot;hgKElc&quot;&gt;&lt;b&gt;×&lt;/b&gt;&lt;/span&gt;&lt;/span&gt; 7&amp;nbsp;&lt;span lang=&quot;ru&quot; class=&quot;BxUVEf ILfuVd&quot;&gt;&lt;span class=&quot;hgKElc&quot;&gt;&lt;b&gt;×&lt;/b&gt;&lt;/span&gt;&lt;/span&gt; 1024" style="text;html=1;align=center;verticalAlign=middle;resizable=0;points=[];autosize=1;strokeColor=none;fillColor=none;" vertex="1" parent="G9T1TqWtmPURdtRibpyq-420">
          <mxGeometry x="5" width="90" height="30" as="geometry" />
        </mxCell>
        <mxCell id="G9T1TqWtmPURdtRibpyq-425" value="" style="group" vertex="1" connectable="0" parent="1">
          <mxGeometry x="230" y="1754" width="174" height="56" as="geometry" />
        </mxCell>
        <mxCell id="G9T1TqWtmPURdtRibpyq-426" style="edgeStyle=orthogonalEdgeStyle;rounded=0;orthogonalLoop=1;jettySize=auto;html=1;exitX=0.5;exitY=1;exitDx=0;exitDy=0;" edge="1" parent="G9T1TqWtmPURdtRibpyq-425" target="G9T1TqWtmPURdtRibpyq-427">
          <mxGeometry relative="1" as="geometry" />
        </mxCell>
        <mxCell id="G9T1TqWtmPURdtRibpyq-427" value="FC 1000" style="rounded=0;whiteSpace=wrap;html=1;rotation=0;fillColor=#d5e8d4;strokeColor=#82b366;" vertex="1" parent="G9T1TqWtmPURdtRibpyq-425">
          <mxGeometry x="54" y="26" width="120" height="30" as="geometry" />
        </mxCell>
        <mxCell id="G9T1TqWtmPURdtRibpyq-428" value="7&amp;nbsp;&lt;span lang=&quot;ru&quot; class=&quot;BxUVEf ILfuVd&quot;&gt;&lt;span class=&quot;hgKElc&quot;&gt;&lt;b&gt;×&lt;/b&gt;&lt;/span&gt;&lt;/span&gt; 7&amp;nbsp;&lt;span lang=&quot;ru&quot; class=&quot;BxUVEf ILfuVd&quot;&gt;&lt;span class=&quot;hgKElc&quot;&gt;&lt;b&gt;×&lt;/b&gt;&lt;/span&gt;&lt;/span&gt; 1024" style="text;html=1;align=center;verticalAlign=middle;resizable=0;points=[];autosize=1;strokeColor=none;fillColor=none;" vertex="1" parent="G9T1TqWtmPURdtRibpyq-425">
          <mxGeometry x="5" width="90" height="30" as="geometry" />
        </mxCell>
        <mxCell id="G9T1TqWtmPURdtRibpyq-430" style="edgeStyle=orthogonalEdgeStyle;rounded=0;orthogonalLoop=1;jettySize=auto;html=1;exitX=0.5;exitY=1;exitDx=0;exitDy=0;entryX=0.5;entryY=0;entryDx=0;entryDy=0;" edge="1" parent="1" source="G9T1TqWtmPURdtRibpyq-344" target="G9T1TqWtmPURdtRibpyq-382">
          <mxGeometry relative="1" as="geometry" />
        </mxCell>
        <mxCell id="G9T1TqWtmPURdtRibpyq-431" style="edgeStyle=orthogonalEdgeStyle;rounded=0;orthogonalLoop=1;jettySize=auto;html=1;exitX=0.5;exitY=1;exitDx=0;exitDy=0;entryX=0.5;entryY=0;entryDx=0;entryDy=0;" edge="1" parent="1" source="G9T1TqWtmPURdtRibpyq-382" target="G9T1TqWtmPURdtRibpyq-406">
          <mxGeometry relative="1" as="geometry" />
        </mxCell>
        <mxCell id="G9T1TqWtmPURdtRibpyq-432" style="edgeStyle=orthogonalEdgeStyle;rounded=0;orthogonalLoop=1;jettySize=auto;html=1;exitX=0.5;exitY=1;exitDx=0;exitDy=0;entryX=0.5;entryY=0;entryDx=0;entryDy=0;" edge="1" parent="1" source="G9T1TqWtmPURdtRibpyq-406" target="G9T1TqWtmPURdtRibpyq-410">
          <mxGeometry relative="1" as="geometry" />
        </mxCell>
        <mxCell id="G9T1TqWtmPURdtRibpyq-433" style="edgeStyle=orthogonalEdgeStyle;rounded=0;orthogonalLoop=1;jettySize=auto;html=1;exitX=0.5;exitY=1;exitDx=0;exitDy=0;" edge="1" parent="1" source="G9T1TqWtmPURdtRibpyq-410" target="G9T1TqWtmPURdtRibpyq-414">
          <mxGeometry relative="1" as="geometry" />
        </mxCell>
        <mxCell id="G9T1TqWtmPURdtRibpyq-434" style="edgeStyle=orthogonalEdgeStyle;rounded=0;orthogonalLoop=1;jettySize=auto;html=1;exitX=0.5;exitY=1;exitDx=0;exitDy=0;entryX=0.5;entryY=0;entryDx=0;entryDy=0;" edge="1" parent="1" source="G9T1TqWtmPURdtRibpyq-414" target="G9T1TqWtmPURdtRibpyq-418">
          <mxGeometry relative="1" as="geometry" />
        </mxCell>
        <mxCell id="G9T1TqWtmPURdtRibpyq-435" style="edgeStyle=orthogonalEdgeStyle;rounded=0;orthogonalLoop=1;jettySize=auto;html=1;exitX=0.5;exitY=1;exitDx=0;exitDy=0;entryX=0.5;entryY=0;entryDx=0;entryDy=0;" edge="1" parent="1" source="G9T1TqWtmPURdtRibpyq-418" target="G9T1TqWtmPURdtRibpyq-422">
          <mxGeometry relative="1" as="geometry" />
        </mxCell>
        <mxCell id="G9T1TqWtmPURdtRibpyq-436" style="edgeStyle=orthogonalEdgeStyle;rounded=0;orthogonalLoop=1;jettySize=auto;html=1;exitX=0.5;exitY=1;exitDx=0;exitDy=0;entryX=0.5;entryY=0;entryDx=0;entryDy=0;" edge="1" parent="1" source="G9T1TqWtmPURdtRibpyq-422" target="G9T1TqWtmPURdtRibpyq-427">
          <mxGeometry relative="1" as="geometry" />
        </mxCell>
        <mxCell id="G9T1TqWtmPURdtRibpyq-437" value="Результат классификации" style="text;html=1;align=center;verticalAlign=middle;whiteSpace=wrap;rounded=0;rotation=0;" vertex="1" parent="1">
          <mxGeometry x="304" y="1830" width="80" height="40" as="geometry" />
        </mxCell>
        <mxCell id="G9T1TqWtmPURdtRibpyq-438" style="edgeStyle=orthogonalEdgeStyle;rounded=0;orthogonalLoop=1;jettySize=auto;html=1;exitX=0.5;exitY=1;exitDx=0;exitDy=0;entryX=0.5;entryY=0;entryDx=0;entryDy=0;" edge="1" parent="1" source="G9T1TqWtmPURdtRibpyq-427" target="G9T1TqWtmPURdtRibpyq-437">
          <mxGeometry relative="1" as="geometry" />
        </mxCell>
        <mxCell id="G9T1TqWtmPURdtRibpyq-439" value="&lt;font style=&quot;font-size: 34px;&quot;&gt;EfficientNet&lt;/font&gt;" style="text;html=1;align=center;verticalAlign=middle;whiteSpace=wrap;rounded=0;" vertex="1" parent="1">
          <mxGeometry x="1556" y="1040" width="130" height="90" as="geometry" />
        </mxCell>
        <mxCell id="G9T1TqWtmPURdtRibpyq-446" style="edgeStyle=orthogonalEdgeStyle;rounded=0;orthogonalLoop=1;jettySize=auto;html=1;exitX=0.5;exitY=1;exitDx=0;exitDy=0;" edge="1" parent="1" source="G9T1TqWtmPURdtRibpyq-440" target="G9T1TqWtmPURdtRibpyq-443">
          <mxGeometry relative="1" as="geometry" />
        </mxCell>
        <mxCell id="G9T1TqWtmPURdtRibpyq-440" value="Входное изображение" style="text;html=1;align=center;verticalAlign=middle;whiteSpace=wrap;rounded=0;rotation=0;" vertex="1" parent="1">
          <mxGeometry x="1484" y="1140" width="80" height="40" as="geometry" />
        </mxCell>
        <mxCell id="G9T1TqWtmPURdtRibpyq-441" value="" style="group" vertex="1" connectable="0" parent="1">
          <mxGeometry x="1410" y="1190" width="174" height="56" as="geometry" />
        </mxCell>
        <mxCell id="G9T1TqWtmPURdtRibpyq-442" style="edgeStyle=orthogonalEdgeStyle;rounded=0;orthogonalLoop=1;jettySize=auto;html=1;exitX=0.5;exitY=1;exitDx=0;exitDy=0;" edge="1" parent="G9T1TqWtmPURdtRibpyq-441" target="G9T1TqWtmPURdtRibpyq-443">
          <mxGeometry relative="1" as="geometry" />
        </mxCell>
        <mxCell id="G9T1TqWtmPURdtRibpyq-443" value="3&lt;span lang=&quot;ru&quot; class=&quot;BxUVEf ILfuVd&quot;&gt;&lt;span class=&quot;hgKElc&quot;&gt;&lt;b&gt;×&lt;/b&gt;&lt;/span&gt;&lt;/span&gt;3 Conv " style="rounded=0;whiteSpace=wrap;html=1;rotation=0;fillColor=#ffe6cc;strokeColor=#d79b00;" vertex="1" parent="G9T1TqWtmPURdtRibpyq-441">
          <mxGeometry x="54" y="26" width="120" height="30" as="geometry" />
        </mxCell>
        <mxCell id="G9T1TqWtmPURdtRibpyq-444" value="224 x 224 x 3" style="text;html=1;align=center;verticalAlign=middle;resizable=0;points=[];autosize=1;strokeColor=none;fillColor=none;" vertex="1" parent="G9T1TqWtmPURdtRibpyq-441">
          <mxGeometry width="100" height="30" as="geometry" />
        </mxCell>
        <mxCell id="G9T1TqWtmPURdtRibpyq-447" value="3&lt;span lang=&quot;ru&quot; class=&quot;BxUVEf ILfuVd&quot;&gt;&lt;span class=&quot;hgKElc&quot;&gt;&lt;b&gt;×&lt;/b&gt;&lt;/span&gt;&lt;/span&gt;3 MbConv1" style="rounded=0;whiteSpace=wrap;html=1;rotation=0;fillColor=#e1d5e7;strokeColor=#9673a6;" vertex="1" parent="1">
          <mxGeometry x="1464" y="1275" width="120" height="30" as="geometry" />
        </mxCell>
        <mxCell id="G9T1TqWtmPURdtRibpyq-448" value="" style="rounded=0;whiteSpace=wrap;html=1;fillColor=none;" vertex="1" parent="1">
          <mxGeometry x="1150" y="1230" width="210" height="290" as="geometry" />
        </mxCell>
        <mxCell id="G9T1TqWtmPURdtRibpyq-449" value="" style="html=1;shadow=0;dashed=0;align=center;verticalAlign=middle;shape=mxgraph.arrows2.arrow;dy=0.6;dx=40;notch=0;" vertex="1" parent="1">
          <mxGeometry x="414" y="1416" width="97" height="30" as="geometry" />
        </mxCell>
        <mxCell id="G9T1TqWtmPURdtRibpyq-453" style="edgeStyle=orthogonalEdgeStyle;rounded=0;orthogonalLoop=1;jettySize=auto;html=1;exitX=0.5;exitY=1;exitDx=0;exitDy=0;" edge="1" parent="1" source="G9T1TqWtmPURdtRibpyq-450" target="G9T1TqWtmPURdtRibpyq-452">
          <mxGeometry relative="1" as="geometry" />
        </mxCell>
        <mxCell id="G9T1TqWtmPURdtRibpyq-450" value="k&lt;span lang=&quot;ru&quot; class=&quot;BxUVEf ILfuVd&quot;&gt;&lt;span class=&quot;hgKElc&quot;&gt;&lt;b&gt;×&lt;/b&gt;&lt;/span&gt;&lt;/span&gt;k, Depthwise Conv, /1 или /2" style="rounded=0;whiteSpace=wrap;html=1;rotation=0;fillColor=#e1d5e7;strokeColor=#9673a6;" vertex="1" parent="1">
          <mxGeometry x="1195" y="1280" width="120" height="30" as="geometry" />
        </mxCell>
        <mxCell id="G9T1TqWtmPURdtRibpyq-451" value="MbConv1" style="text;whiteSpace=wrap;html=1;align=center;verticalAlign=middle;fontSize=18;" vertex="1" parent="1">
          <mxGeometry x="1150" y="1230" width="210" height="50" as="geometry" />
        </mxCell>
        <mxCell id="G9T1TqWtmPURdtRibpyq-457" style="edgeStyle=orthogonalEdgeStyle;rounded=0;orthogonalLoop=1;jettySize=auto;html=1;exitX=0.5;exitY=1;exitDx=0;exitDy=0;" edge="1" parent="1" source="G9T1TqWtmPURdtRibpyq-452" target="G9T1TqWtmPURdtRibpyq-455">
          <mxGeometry relative="1" as="geometry" />
        </mxCell>
        <mxCell id="G9T1TqWtmPURdtRibpyq-452" value="SE" style="rounded=0;whiteSpace=wrap;html=1;rotation=0;fillColor=none;" vertex="1" parent="1">
          <mxGeometry x="1195" y="1339" width="120" height="30" as="geometry" />
        </mxCell>
        <mxCell id="G9T1TqWtmPURdtRibpyq-458" style="edgeStyle=orthogonalEdgeStyle;rounded=0;orthogonalLoop=1;jettySize=auto;html=1;exitX=0.5;exitY=1;exitDx=0;exitDy=0;" edge="1" parent="1" source="G9T1TqWtmPURdtRibpyq-455" target="G9T1TqWtmPURdtRibpyq-456">
          <mxGeometry relative="1" as="geometry" />
        </mxCell>
        <mxCell id="G9T1TqWtmPURdtRibpyq-455" value="1&lt;span lang=&quot;ru&quot; class=&quot;BxUVEf ILfuVd&quot;&gt;&lt;span class=&quot;hgKElc&quot;&gt;×&lt;/span&gt;&lt;/span&gt;1 Conv " style="rounded=0;whiteSpace=wrap;html=1;rotation=0;fillColor=#ffe6cc;strokeColor=#d79b00;" vertex="1" parent="1">
          <mxGeometry x="1195" y="1399" width="120" height="30" as="geometry" />
        </mxCell>
        <mxCell id="G9T1TqWtmPURdtRibpyq-456" value="Dropout" style="rounded=0;whiteSpace=wrap;html=1;rotation=0;fillColor=#ffe6cc;strokeColor=#d79b00;" vertex="1" parent="1">
          <mxGeometry x="1195" y="1463" width="120" height="30" as="geometry" />
        </mxCell>
      </root>
    </mxGraphModel>
  </diagram>
</mxfile>
